<svg width="628" height="318" viewBox="0 0 628 318" fill="none" xmlns="http://www.w3.org/2000/svg">
<mask id="path-1-outside-1_842_3073" maskUnits="userSpaceOnUse" x="0.950928" y="0.889404" width="627" height="318" fill="black">
<rect fill="white" x="0.950928" y="0.889404" width="627" height="318"/>
<path d="M205.808 168.618C208.186 166.052 212.942 164.721 218.649 164.72C224.452 164.72 227.306 166.241 229.494 169.283C232.443 165.576 236.723 164.72 242.906 164.72C249.755 164.72 255.081 168.238 255.082 173.18V229.076C255.082 229.171 255.177 229.266 255.272 229.266H291.419V230.048H291.683V245.257H306.427C312.991 245.257 316.32 247.824 316.32 252.957V298.49C316.32 303.528 312.991 306 306.427 306H271.897V244.381H245.38C240.528 244.381 235.486 240.768 235.486 236.871V180.12C235.486 180.025 235.391 179.931 235.297 179.93H230.635C230.54 179.93 230.445 180.025 230.445 180.12V225.464H210.659V180.12C210.659 180.025 210.564 179.93 210.469 179.93H205.998C205.903 179.931 205.809 180.025 205.808 180.12V225.464H186.022V164.72H205.808V168.618ZM355.47 245.257C362.034 245.257 365.364 247.824 365.364 252.957V298.49C365.364 303.528 362.034 306 355.47 306H330.834C324.27 306 320.941 303.528 320.941 298.49V252.957C320.941 247.824 324.27 245.257 330.834 245.257H355.47ZM393.677 258.376L398.338 245.257H414.033L403.284 273.014L415.841 306H394.723L389.968 292.882L385.02 306H368.279L380.645 273.49L369.325 245.257H389.015L393.677 258.376ZM291.683 290.885H296.344C296.44 290.885 296.534 290.79 296.534 290.695V260.657C296.534 260.562 296.44 260.467 296.344 260.467H291.683V290.885ZM340.917 260.467C340.822 260.467 340.726 260.562 340.726 260.657V290.695C340.726 290.79 340.822 290.885 340.917 290.885H345.387C345.483 290.885 345.578 290.79 345.578 290.695V260.657C345.578 260.562 345.483 260.467 345.387 260.467H340.917ZM481.677 164.72C488.24 164.72 491.474 167.287 491.474 172.421V190.101C491.474 193.048 489.857 194.664 486.623 195.045C489.952 195.52 491.569 197.136 491.569 200.083V229.076C491.569 229.171 491.665 229.266 491.76 229.266H615.252V244.381H481.677C475.113 244.381 471.784 241.909 471.784 236.871V201.318C471.784 201.223 471.689 201.129 471.594 201.129H466.932V225.464H447.147V164.72H481.677ZM278.958 189.341C278.958 189.436 279.053 189.531 279.148 189.531H283.619C283.714 189.531 283.809 189.436 283.809 189.341V164.72H303.594V191.432C303.594 199.702 299.504 203.79 291.419 203.79V225.464H271.634V203.79C263.358 203.79 259.172 199.702 259.172 191.432V164.72H278.958V189.341ZM341.96 164.72C348.523 164.72 351.852 167.287 351.852 172.421V183.637H332.067V180.12C332.067 180.025 331.972 179.93 331.877 179.93H327.406C327.311 179.93 327.216 180.025 327.216 180.12V187.344C327.216 187.44 327.311 187.535 327.406 187.535H341.96C348.523 187.535 351.852 190.007 351.852 195.045V217.954C351.852 222.992 348.523 225.464 341.96 225.464H317.323C310.759 225.464 307.43 222.992 307.43 217.954V206.547H327.216V210.159C327.216 210.254 327.311 210.349 327.406 210.349H331.877C331.972 210.349 332.067 210.254 332.067 210.159V202.934C332.067 202.839 331.972 202.744 331.877 202.744H317.323C310.76 202.744 307.43 200.178 307.43 195.045V172.421C307.43 167.287 310.759 164.72 317.323 164.72H341.96ZM379.31 168.618H403.947V183.637H379.31V210.159C379.31 210.254 379.405 210.349 379.5 210.349H384.066C384.161 210.349 384.257 210.254 384.257 210.159V187.535H403.947V217.954C403.947 222.992 400.617 225.464 394.053 225.464H369.417C362.853 225.464 359.524 222.992 359.524 217.954V183.637H354.673V168.618H359.524V164.72H379.31V168.618ZM442.265 179.93H428.567V187.535H442.075V202.744H428.567V210.349H442.36V225.464H408.782V164.72H442.265V179.93ZM515.445 189.341C515.445 189.436 515.54 189.531 515.635 189.531H520.106C520.201 189.531 520.297 189.436 520.297 189.341V164.72H540.083V191.432C540.083 199.702 535.992 203.79 527.907 203.79V225.464H508.121V203.79C499.845 203.79 495.66 199.702 495.66 191.432V164.72H515.445V189.341ZM466.932 189.055H471.594C471.689 189.055 471.784 188.961 471.784 188.866V180.12C471.784 180.025 471.689 179.93 471.594 179.93H466.932V189.055ZM318.571 16.7869C321.9 14.2204 326.847 12.8894 333.315 12.8894C339.878 12.8895 343.208 15.4565 343.208 20.5896V77.2449C343.208 77.3399 343.303 77.4353 343.398 77.4353H392.292V92.5496H333.41C326.751 92.5496 323.422 90.0778 323.422 85.0398V28.2888C323.421 28.194 323.327 28.0996 323.232 28.0994H318.76C318.666 28.0997 318.571 28.194 318.571 28.2888V73.6326H318.5V97.3865H333.244C339.807 97.3865 343.136 99.9535 343.136 105.087V150.62C343.136 155.658 339.807 158.13 333.244 158.13H298.715V72.9353H298.785V12.8894H318.571V16.7869ZM382.288 97.3865C388.851 97.3865 392.18 99.9535 392.18 105.087V158.13H357.651C351.088 158.13 347.758 155.658 347.758 150.62V127.711C347.758 122.673 351.088 120.201 357.651 120.201H372.395V112.787C372.395 112.692 372.3 112.597 372.205 112.596H367.734C367.639 112.596 367.544 112.692 367.544 112.787V116.303H347.758V105.087C347.758 99.9535 351.088 97.3865 357.651 97.3865H382.288ZM431.336 97.3865C437.899 97.3865 441.228 99.9535 441.228 105.087V116.303H421.443V112.787C421.443 112.692 421.348 112.597 421.253 112.596H416.782C416.687 112.596 416.592 112.692 416.592 112.787V120.01C416.592 120.106 416.687 120.201 416.782 120.201H431.336C437.899 120.201 441.228 122.673 441.228 127.711V150.62C441.228 155.658 437.899 158.13 431.336 158.13H406.699C400.135 158.13 396.805 155.658 396.805 150.62V139.213H416.592V142.825C416.592 142.92 416.687 143.015 416.782 143.015H421.253C421.348 143.015 421.443 142.92 421.443 142.825V135.6C421.443 135.505 421.348 135.411 421.253 135.411H406.699C400.135 135.411 396.805 132.844 396.805 127.711V105.087C396.805 99.9535 400.135 97.3865 406.699 97.3865H431.336ZM480.291 97.3865C486.854 97.3865 490.183 99.9535 490.183 105.087V135.411H465.547V142.825C465.547 142.92 465.642 143.015 465.737 143.015H470.208C470.303 143.015 470.398 142.92 470.398 142.825V139.213H490.183V150.62C490.183 155.658 486.854 158.13 480.291 158.13H455.654C449.091 158.13 445.76 155.658 445.76 150.62V105.087C445.76 99.9535 449.091 97.3865 455.654 97.3865H480.291ZM539.138 158.13H504.609C497.76 158.13 494.716 155.658 494.716 150.62V105.087C494.716 99.9535 498.046 97.3865 504.609 97.3865H519.353V82.1775H539.138V158.13ZM318.5 143.015H323.161C323.256 143.015 323.351 142.92 323.351 142.825V112.786C323.351 112.691 323.256 112.596 323.161 112.596H318.5V143.015ZM367.734 133.51C367.639 133.51 367.544 133.605 367.544 133.7V142.825C367.544 142.92 367.639 143.015 367.734 143.015H372.395V133.51H367.734ZM514.692 112.596C514.597 112.596 514.502 112.691 514.502 112.786V142.825C514.502 142.92 514.597 143.015 514.692 143.015H519.353V112.596H514.692ZM465.737 112.596C465.642 112.596 465.547 112.692 465.547 112.787V121.247H470.398V112.787C470.398 112.692 470.303 112.597 470.208 112.596H465.737ZM220.913 12.8894C227.476 12.8894 230.711 15.4564 230.711 20.5896V38.2703C230.711 41.217 229.094 42.8333 225.86 43.2136C229.189 43.689 230.806 45.305 230.806 48.2517V77.2449C230.807 77.3399 230.902 77.4353 230.997 77.4353H255.538V92.5496H220.913C214.35 92.5494 211.02 90.0777 211.02 85.0398V49.4871C211.02 49.3921 210.925 49.2976 210.83 49.2976H206.17V73.6326H186.384V12.8894H220.913ZM46.4343 28.0994H32.7361V35.7039H46.2439V50.9128H32.7361V58.5183H46.5291V73.6326H12.9509V12.8894H46.4343V28.0994ZM74.907 26.0076L79.5671 12.8894H95.2625L84.5144 40.6472L97.0701 73.6326H75.9529L71.197 60.5144L66.2507 73.6326H49.5085L61.8748 41.1218L50.5544 12.8894H70.2458L74.907 26.0076ZM134.243 12.8894C140.806 12.8894 144.136 15.4564 144.136 20.5896V43.2136C144.136 48.3467 140.806 50.9128 134.243 50.9128H119.499V73.6326H99.7136V12.8894H134.243ZM181.502 28.0994H167.804V35.7039H181.311V50.9128H167.804V58.5183H181.597V73.6326H148.018V12.8894H181.502V28.0994ZM255.443 73.6326H235.657V12.8894H255.443V73.6326ZM293.903 28.0994H280.206V35.7039H293.713V50.9128H280.206V58.5183H293.999V73.6326H260.42V12.8894H293.903V28.0994ZM382.398 12.8894C388.962 12.8894 392.292 15.4564 392.292 20.5896V38.5554H372.506V28.2888C372.505 28.1939 372.41 28.0994 372.315 28.0994H367.844C367.749 28.0994 367.654 28.1939 367.654 28.2888V58.3279C367.654 58.4229 367.749 58.5182 367.844 58.5183H372.315C372.41 58.5183 372.506 58.4229 372.506 58.3279V44.1638H392.292V66.1228C392.292 71.1609 388.962 73.6326 382.398 73.6326H357.761C351.198 73.6326 347.869 71.1609 347.869 66.1228V20.5896C347.869 15.4564 351.198 12.8894 357.761 12.8894H382.398ZM430.551 28.0994H416.852V35.7039H430.36V50.9128H416.852V58.5183H430.645V73.6326H397.067V12.8894H430.551V28.0994ZM206.17 37.2244H210.83C210.925 37.2244 211.02 37.1299 211.02 37.0349V28.2888C211.02 28.1939 210.925 28.0994 210.83 28.0994H206.17V37.2244ZM119.499 36.5593H124.16C124.255 36.5593 124.35 36.464 124.35 36.3689V28.2888C124.35 28.1939 124.255 28.0994 124.16 28.0994H119.499V36.5593Z"/>
</mask>
<path d="M205.808 168.618C208.186 166.052 212.942 164.721 218.649 164.72C224.452 164.72 227.306 166.241 229.494 169.283C232.443 165.576 236.723 164.72 242.906 164.72C249.755 164.72 255.081 168.238 255.082 173.18V229.076C255.082 229.171 255.177 229.266 255.272 229.266H291.419V230.048H291.683V245.257H306.427C312.991 245.257 316.32 247.824 316.32 252.957V298.49C316.32 303.528 312.991 306 306.427 306H271.897V244.381H245.38C240.528 244.381 235.486 240.768 235.486 236.871V180.12C235.486 180.025 235.391 179.931 235.297 179.93H230.635C230.54 179.93 230.445 180.025 230.445 180.12V225.464H210.659V180.12C210.659 180.025 210.564 179.93 210.469 179.93H205.998C205.903 179.931 205.809 180.025 205.808 180.12V225.464H186.022V164.72H205.808V168.618ZM355.47 245.257C362.034 245.257 365.364 247.824 365.364 252.957V298.49C365.364 303.528 362.034 306 355.47 306H330.834C324.27 306 320.941 303.528 320.941 298.49V252.957C320.941 247.824 324.27 245.257 330.834 245.257H355.47ZM393.677 258.376L398.338 245.257H414.033L403.284 273.014L415.841 306H394.723L389.968 292.882L385.02 306H368.279L380.645 273.49L369.325 245.257H389.015L393.677 258.376ZM291.683 290.885H296.344C296.44 290.885 296.534 290.79 296.534 290.695V260.657C296.534 260.562 296.44 260.467 296.344 260.467H291.683V290.885ZM340.917 260.467C340.822 260.467 340.726 260.562 340.726 260.657V290.695C340.726 290.79 340.822 290.885 340.917 290.885H345.387C345.483 290.885 345.578 290.79 345.578 290.695V260.657C345.578 260.562 345.483 260.467 345.387 260.467H340.917ZM481.677 164.72C488.24 164.72 491.474 167.287 491.474 172.421V190.101C491.474 193.048 489.857 194.664 486.623 195.045C489.952 195.52 491.569 197.136 491.569 200.083V229.076C491.569 229.171 491.665 229.266 491.76 229.266H615.252V244.381H481.677C475.113 244.381 471.784 241.909 471.784 236.871V201.318C471.784 201.223 471.689 201.129 471.594 201.129H466.932V225.464H447.147V164.72H481.677ZM278.958 189.341C278.958 189.436 279.053 189.531 279.148 189.531H283.619C283.714 189.531 283.809 189.436 283.809 189.341V164.72H303.594V191.432C303.594 199.702 299.504 203.79 291.419 203.79V225.464H271.634V203.79C263.358 203.79 259.172 199.702 259.172 191.432V164.72H278.958V189.341ZM341.96 164.72C348.523 164.72 351.852 167.287 351.852 172.421V183.637H332.067V180.12C332.067 180.025 331.972 179.93 331.877 179.93H327.406C327.311 179.93 327.216 180.025 327.216 180.12V187.344C327.216 187.44 327.311 187.535 327.406 187.535H341.96C348.523 187.535 351.852 190.007 351.852 195.045V217.954C351.852 222.992 348.523 225.464 341.96 225.464H317.323C310.759 225.464 307.43 222.992 307.43 217.954V206.547H327.216V210.159C327.216 210.254 327.311 210.349 327.406 210.349H331.877C331.972 210.349 332.067 210.254 332.067 210.159V202.934C332.067 202.839 331.972 202.744 331.877 202.744H317.323C310.76 202.744 307.43 200.178 307.43 195.045V172.421C307.43 167.287 310.759 164.72 317.323 164.72H341.96ZM379.31 168.618H403.947V183.637H379.31V210.159C379.31 210.254 379.405 210.349 379.5 210.349H384.066C384.161 210.349 384.257 210.254 384.257 210.159V187.535H403.947V217.954C403.947 222.992 400.617 225.464 394.053 225.464H369.417C362.853 225.464 359.524 222.992 359.524 217.954V183.637H354.673V168.618H359.524V164.72H379.31V168.618ZM442.265 179.93H428.567V187.535H442.075V202.744H428.567V210.349H442.36V225.464H408.782V164.72H442.265V179.93ZM515.445 189.341C515.445 189.436 515.54 189.531 515.635 189.531H520.106C520.201 189.531 520.297 189.436 520.297 189.341V164.72H540.083V191.432C540.083 199.702 535.992 203.79 527.907 203.79V225.464H508.121V203.79C499.845 203.79 495.66 199.702 495.66 191.432V164.72H515.445V189.341ZM466.932 189.055H471.594C471.689 189.055 471.784 188.961 471.784 188.866V180.12C471.784 180.025 471.689 179.93 471.594 179.93H466.932V189.055ZM318.571 16.7869C321.9 14.2204 326.847 12.8894 333.315 12.8894C339.878 12.8895 343.208 15.4565 343.208 20.5896V77.2449C343.208 77.3399 343.303 77.4353 343.398 77.4353H392.292V92.5496H333.41C326.751 92.5496 323.422 90.0778 323.422 85.0398V28.2888C323.421 28.194 323.327 28.0996 323.232 28.0994H318.76C318.666 28.0997 318.571 28.194 318.571 28.2888V73.6326H318.5V97.3865H333.244C339.807 97.3865 343.136 99.9535 343.136 105.087V150.62C343.136 155.658 339.807 158.13 333.244 158.13H298.715V72.9353H298.785V12.8894H318.571V16.7869ZM382.288 97.3865C388.851 97.3865 392.18 99.9535 392.18 105.087V158.13H357.651C351.088 158.13 347.758 155.658 347.758 150.62V127.711C347.758 122.673 351.088 120.201 357.651 120.201H372.395V112.787C372.395 112.692 372.3 112.597 372.205 112.596H367.734C367.639 112.596 367.544 112.692 367.544 112.787V116.303H347.758V105.087C347.758 99.9535 351.088 97.3865 357.651 97.3865H382.288ZM431.336 97.3865C437.899 97.3865 441.228 99.9535 441.228 105.087V116.303H421.443V112.787C421.443 112.692 421.348 112.597 421.253 112.596H416.782C416.687 112.596 416.592 112.692 416.592 112.787V120.01C416.592 120.106 416.687 120.201 416.782 120.201H431.336C437.899 120.201 441.228 122.673 441.228 127.711V150.62C441.228 155.658 437.899 158.13 431.336 158.13H406.699C400.135 158.13 396.805 155.658 396.805 150.62V139.213H416.592V142.825C416.592 142.92 416.687 143.015 416.782 143.015H421.253C421.348 143.015 421.443 142.92 421.443 142.825V135.6C421.443 135.505 421.348 135.411 421.253 135.411H406.699C400.135 135.411 396.805 132.844 396.805 127.711V105.087C396.805 99.9535 400.135 97.3865 406.699 97.3865H431.336ZM480.291 97.3865C486.854 97.3865 490.183 99.9535 490.183 105.087V135.411H465.547V142.825C465.547 142.92 465.642 143.015 465.737 143.015H470.208C470.303 143.015 470.398 142.92 470.398 142.825V139.213H490.183V150.62C490.183 155.658 486.854 158.13 480.291 158.13H455.654C449.091 158.13 445.76 155.658 445.76 150.62V105.087C445.76 99.9535 449.091 97.3865 455.654 97.3865H480.291ZM539.138 158.13H504.609C497.76 158.13 494.716 155.658 494.716 150.62V105.087C494.716 99.9535 498.046 97.3865 504.609 97.3865H519.353V82.1775H539.138V158.13ZM318.5 143.015H323.161C323.256 143.015 323.351 142.92 323.351 142.825V112.786C323.351 112.691 323.256 112.596 323.161 112.596H318.5V143.015ZM367.734 133.51C367.639 133.51 367.544 133.605 367.544 133.7V142.825C367.544 142.92 367.639 143.015 367.734 143.015H372.395V133.51H367.734ZM514.692 112.596C514.597 112.596 514.502 112.691 514.502 112.786V142.825C514.502 142.92 514.597 143.015 514.692 143.015H519.353V112.596H514.692ZM465.737 112.596C465.642 112.596 465.547 112.692 465.547 112.787V121.247H470.398V112.787C470.398 112.692 470.303 112.597 470.208 112.596H465.737ZM220.913 12.8894C227.476 12.8894 230.711 15.4564 230.711 20.5896V38.2703C230.711 41.217 229.094 42.8333 225.86 43.2136C229.189 43.689 230.806 45.305 230.806 48.2517V77.2449C230.807 77.3399 230.902 77.4353 230.997 77.4353H255.538V92.5496H220.913C214.35 92.5494 211.02 90.0777 211.02 85.0398V49.4871C211.02 49.3921 210.925 49.2976 210.83 49.2976H206.17V73.6326H186.384V12.8894H220.913ZM46.4343 28.0994H32.7361V35.7039H46.2439V50.9128H32.7361V58.5183H46.5291V73.6326H12.9509V12.8894H46.4343V28.0994ZM74.907 26.0076L79.5671 12.8894H95.2625L84.5144 40.6472L97.0701 73.6326H75.9529L71.197 60.5144L66.2507 73.6326H49.5085L61.8748 41.1218L50.5544 12.8894H70.2458L74.907 26.0076ZM134.243 12.8894C140.806 12.8894 144.136 15.4564 144.136 20.5896V43.2136C144.136 48.3467 140.806 50.9128 134.243 50.9128H119.499V73.6326H99.7136V12.8894H134.243ZM181.502 28.0994H167.804V35.7039H181.311V50.9128H167.804V58.5183H181.597V73.6326H148.018V12.8894H181.502V28.0994ZM255.443 73.6326H235.657V12.8894H255.443V73.6326ZM293.903 28.0994H280.206V35.7039H293.713V50.9128H280.206V58.5183H293.999V73.6326H260.42V12.8894H293.903V28.0994ZM382.398 12.8894C388.962 12.8894 392.292 15.4564 392.292 20.5896V38.5554H372.506V28.2888C372.505 28.1939 372.41 28.0994 372.315 28.0994H367.844C367.749 28.0994 367.654 28.1939 367.654 28.2888V58.3279C367.654 58.4229 367.749 58.5182 367.844 58.5183H372.315C372.41 58.5183 372.506 58.4229 372.506 58.3279V44.1638H392.292V66.1228C392.292 71.1609 388.962 73.6326 382.398 73.6326H357.761C351.198 73.6326 347.869 71.1609 347.869 66.1228V20.5896C347.869 15.4564 351.198 12.8894 357.761 12.8894H382.398ZM430.551 28.0994H416.852V35.7039H430.36V50.9128H416.852V58.5183H430.645V73.6326H397.067V12.8894H430.551V28.0994ZM206.17 37.2244H210.83C210.925 37.2244 211.02 37.1299 211.02 37.0349V28.2888C211.02 28.1939 210.925 28.0994 210.83 28.0994H206.17V37.2244ZM119.499 36.5593H124.16C124.255 36.5593 124.35 36.464 124.35 36.3689V28.2888C124.35 28.1939 124.255 28.0994 124.16 28.0994H119.499V36.5593Z" fill="white"/>
<path d="M205.808 168.618H193.808V199.223L214.61 176.774L205.808 168.618ZM218.649 164.72V152.72H218.649L218.649 164.72ZM229.494 169.283L219.752 176.29L229.012 189.165L238.885 176.753L229.494 169.283ZM242.906 164.72V152.72V164.72ZM255.082 173.18H267.082V173.18L255.082 173.18ZM255.082 229.076H243.082V229.087L255.082 229.076ZM291.419 229.266H303.419V217.266H291.419V229.266ZM291.419 230.048H279.419V242.048H291.419V230.048ZM291.683 230.048H303.683V218.048H291.683V230.048ZM291.683 245.257H279.683V257.257H291.683V245.257ZM306.427 245.257L306.428 233.257H306.427V245.257ZM316.32 252.957H328.32V252.957L316.32 252.957ZM306.427 306V318H306.428L306.427 306ZM271.897 306H259.897V318H271.897V306ZM271.897 244.381H283.897V232.381H271.897V244.381ZM235.486 236.871H223.486V236.871L235.486 236.871ZM235.486 180.12H247.486V180.108L247.486 180.095L235.486 180.12ZM235.297 179.93L235.337 167.93L235.317 167.93H235.297V179.93ZM230.445 180.12L218.445 180.095L218.445 180.108V180.12H230.445ZM230.445 225.464V237.464H242.445V225.464H230.445ZM210.659 225.464H198.659V237.464H210.659V225.464ZM210.659 180.12H222.659V180.108L222.659 180.095L210.659 180.12ZM205.998 179.93V167.93H205.982L205.967 167.93L205.998 179.93ZM205.808 180.12L193.808 180.095L193.808 180.108V180.12H205.808ZM205.808 225.464V237.464H217.808V225.464H205.808ZM186.022 225.464H174.022V237.464H186.022V225.464ZM186.022 164.72V152.72H174.022V164.72H186.022ZM205.808 164.72H217.808V152.72H205.808V164.72ZM365.364 252.957H377.364V252.957L365.364 252.957ZM330.834 306L330.834 318H330.834V306ZM320.941 252.957L308.941 252.957V252.957H320.941ZM330.834 245.257V233.257H330.834L330.834 245.257ZM393.677 258.376L382.369 262.393L393.677 294.219L404.984 262.393L393.677 258.376ZM398.338 245.257V233.257H389.866L387.03 241.239L398.338 245.257ZM414.033 245.257L425.223 249.59L431.548 233.257H414.033V245.257ZM403.284 273.014L392.094 268.681L390.43 272.978L392.069 277.284L403.284 273.014ZM415.841 306V318H433.249L427.055 301.731L415.841 306ZM394.723 306L383.442 310.09L386.31 318H394.723V306ZM389.968 292.882L401.249 288.792L390.19 258.286L378.739 288.647L389.968 292.882ZM385.02 306V318H393.32L396.248 310.234L385.02 306ZM368.279 306L357.063 301.733L350.876 318H368.279V306ZM380.645 273.49L391.861 277.756L393.528 273.375L391.783 269.024L380.645 273.49ZM369.325 245.257V233.257H351.585L358.187 249.722L369.325 245.257ZM389.015 245.257L400.323 241.239L397.487 233.257H389.015V245.257ZM291.683 290.885H279.683V302.885H291.683V290.885ZM296.344 290.885V302.885H296.358L296.371 302.885L296.344 290.885ZM296.344 260.467L296.371 248.467L296.358 248.467H296.344V260.467ZM291.683 260.467V248.467H279.683V260.467H291.683ZM340.917 260.467V248.467H340.908L340.917 260.467ZM340.917 290.885L340.908 302.885H340.917V290.885ZM486.623 195.045L485.222 183.127L484.927 206.924L486.623 195.045ZM491.569 229.076H479.569V229.086L491.569 229.076ZM491.76 229.266L491.742 241.266L491.751 241.266H491.76V229.266ZM615.252 229.266H627.252V217.266H615.252V229.266ZM615.252 244.381V256.381H627.252V244.381H615.252ZM481.677 244.381L481.676 256.381H481.677V244.381ZM471.784 236.871H459.784V236.871L471.784 236.871ZM471.784 201.318H483.784V201.305L483.784 201.291L471.784 201.318ZM466.932 201.129V189.129H454.932V201.129H466.932ZM466.932 225.464V237.464H478.932V225.464H466.932ZM447.147 225.464H435.147V237.464H447.147V225.464ZM447.147 164.72V152.72H435.147V164.72H447.147ZM283.619 189.531V201.531H283.628L283.619 189.531ZM283.809 164.72V152.72H271.809V164.72H283.809ZM303.594 164.72H315.594V152.72H303.594V164.72ZM303.594 191.432L315.594 191.432V191.432H303.594ZM291.419 203.79V191.79H279.419V203.79H291.419ZM291.419 225.464V237.464H303.419V225.464H291.419ZM271.634 225.464H259.634V237.464H271.634V225.464ZM271.634 203.79H283.634V191.79H271.634V203.79ZM259.172 191.432H247.172V191.432L259.172 191.432ZM259.172 164.72V152.72H247.172V164.72H259.172ZM278.958 164.72H290.958V152.72H278.958V164.72ZM351.852 183.637V195.637H363.852V183.637H351.852ZM332.067 183.637H320.067V195.637H332.067V183.637ZM332.067 180.12H344.067V180.107L344.067 180.094L332.067 180.12ZM327.406 179.93V167.93H327.405L327.406 179.93ZM327.216 180.12L315.216 180.095L315.216 180.107V180.12H327.216ZM327.406 187.535L327.405 199.535H327.406V187.535ZM351.852 217.954L363.852 217.954V217.954H351.852ZM307.43 217.954H295.43V217.954L307.43 217.954ZM307.43 206.547V194.547H295.43V206.547H307.43ZM327.216 206.547H339.216V194.547H327.216V206.547ZM327.406 210.349L327.405 222.349H327.406V210.349ZM332.067 202.934H344.067V202.924L332.067 202.934ZM307.43 195.045H295.43V195.045L307.43 195.045ZM379.31 168.618H367.31V180.618H379.31V168.618ZM403.947 168.618H415.947V156.618H403.947V168.618ZM403.947 183.637V195.637H415.947V183.637H403.947ZM379.31 183.637V171.637H367.31V183.637H379.31ZM379.5 210.349L379.473 222.349L379.486 222.349H379.5V210.349ZM384.066 210.349V222.349H384.079L384.066 210.349ZM384.257 187.535V175.535H372.257V187.535H384.257ZM403.947 187.535H415.947V175.535H403.947V187.535ZM403.947 217.954L415.947 217.954V217.954H403.947ZM369.417 225.464L369.417 237.464H369.417V225.464ZM359.524 217.954H347.524V217.954L359.524 217.954ZM359.524 183.637H371.524V171.637H359.524V183.637ZM354.673 183.637H342.673V195.637H354.673V183.637ZM354.673 168.618V156.618H342.673V168.618H354.673ZM359.524 168.618V180.618H371.524V168.618H359.524ZM359.524 164.72V152.72H347.524V164.72H359.524ZM379.31 164.72H391.31V152.72H379.31V164.72ZM442.265 179.93V191.93H454.265V179.93H442.265ZM428.567 179.93V167.93H416.567V179.93H428.567ZM428.567 187.535H416.567V199.535H428.567V187.535ZM442.075 187.535H454.075V175.535H442.075V187.535ZM442.075 202.744V214.744H454.075V202.744H442.075ZM428.567 202.744V190.744H416.567V202.744H428.567ZM428.567 210.349H416.567V222.349H428.567V210.349ZM442.36 210.349H454.36V198.349H442.36V210.349ZM442.36 225.464V237.464H454.36V225.464H442.36ZM408.782 225.464H396.782V237.464H408.782V225.464ZM408.782 164.72V152.72H396.782V164.72H408.782ZM442.265 164.72H454.265V152.72H442.265V164.72ZM515.635 189.531L515.619 201.531L515.627 201.531H515.635V189.531ZM520.297 164.72V152.72H508.297V164.72H520.297ZM540.083 164.72H552.083V152.72H540.083V164.72ZM540.083 191.432L552.083 191.432V191.432H540.083ZM527.907 203.79L527.907 191.79L515.907 191.79V203.79H527.907ZM527.907 225.464V237.464H539.907V225.464H527.907ZM508.121 225.464H496.121V237.464H508.121V225.464ZM508.121 203.79H520.121V191.79L508.121 191.79L508.121 203.79ZM495.66 191.432H483.66V191.432L495.66 191.432ZM495.66 164.72V152.72H483.66V164.72H495.66ZM515.445 164.72H527.445V152.72H515.445V164.72ZM466.932 189.055H454.932V201.055H466.932V189.055ZM471.784 188.866L483.784 188.893L483.784 188.879V188.866H471.784ZM471.784 180.12H483.784V180.107L483.784 180.094L471.784 180.12ZM466.932 179.93V167.93H454.932V179.93H466.932ZM318.571 16.7869H306.571V41.189L325.897 26.2908L318.571 16.7869ZM333.315 12.8894L333.315 0.889404H333.315V12.8894ZM343.208 77.2449H331.208V77.2576L343.208 77.2449ZM392.292 77.4353H404.292V65.4353H392.292V77.4353ZM392.292 92.5496V104.55H404.292V92.5496H392.292ZM333.41 92.5496V104.55V92.5496ZM323.422 85.0398H311.422V85.04L323.422 85.0398ZM323.422 28.2888H335.422V28.2772L335.422 28.2657L323.422 28.2888ZM323.232 28.0994L323.268 16.0994L323.25 16.0994H323.232V28.0994ZM318.76 28.0994V16.0994H318.741L318.722 16.0994L318.76 28.0994ZM318.571 28.2888L306.571 28.2657L306.571 28.2772V28.2888H318.571ZM318.571 73.6326V85.6326H330.571V73.6326H318.571ZM318.5 73.6326V61.6326H306.5V73.6326H318.5ZM318.5 97.3865H306.5V109.386H318.5V97.3865ZM298.715 158.13H286.715V170.13H298.715V158.13ZM298.715 72.9353V60.9353H286.715V72.9353H298.715ZM298.785 72.9353V84.9353H310.785V72.9353H298.785ZM298.785 12.8894V0.889404H286.785V12.8894H298.785ZM318.571 12.8894H330.571V0.889404H318.571V12.8894ZM382.288 97.3865L382.288 85.3865H382.288V97.3865ZM392.18 158.13V170.13H404.18V158.13H392.18ZM347.758 127.711L335.758 127.711V127.711H347.758ZM372.395 120.201V132.201H384.395V120.201H372.395ZM372.205 112.596L372.23 100.596L372.217 100.596H372.205V112.596ZM367.544 116.303V128.303H379.544V116.303H367.544ZM347.758 116.303H335.758V128.303H347.758V116.303ZM431.336 97.3865L431.336 85.3865H431.336V97.3865ZM441.228 116.303V128.303H453.228V116.303H441.228ZM421.443 116.303H409.443V128.303H421.443V116.303ZM421.253 112.596L421.269 100.596L421.261 100.596H421.253V112.596ZM431.336 120.201L431.336 108.201H431.336V120.201ZM441.228 127.711H453.228V127.711L441.228 127.711ZM431.336 158.13V170.13H431.336L431.336 158.13ZM396.805 139.213V127.213H384.805V139.213H396.805ZM416.592 139.213H428.592V127.213H416.592V139.213ZM421.253 143.015V155.015H421.261L421.268 155.015L421.253 143.015ZM421.443 135.6H433.443V135.587L433.443 135.574L421.443 135.6ZM421.253 135.411L421.269 123.411L421.261 123.411H421.253V135.411ZM480.291 97.3865L480.291 85.3865H480.291V97.3865ZM490.183 135.411V147.411H502.183V135.411H490.183ZM465.547 135.411V123.411H453.547V135.411H465.547ZM470.208 143.015V155.015L470.222 155.015L470.208 143.015ZM470.398 139.213V127.213H458.398V139.213H470.398ZM490.183 139.213H502.183V127.213H490.183V139.213ZM480.291 158.13V170.13H480.291L480.291 158.13ZM539.138 158.13V170.13H551.138V158.13H539.138ZM519.353 97.3865V109.386H531.353V97.3865H519.353ZM519.353 82.1775V70.1775H507.353V82.1775H519.353ZM539.138 82.1775H551.138V70.1775H539.138V82.1775ZM318.5 143.015H306.5V155.015H318.5V143.015ZM323.351 112.786H335.351V112.767L335.351 112.748L323.351 112.786ZM318.5 112.596V100.596H306.5V112.596H318.5ZM372.395 143.015V155.015H384.395V143.015H372.395ZM372.395 133.51H384.395V121.51H372.395V133.51ZM514.502 112.786L502.502 112.749L502.502 112.767V112.786H514.502ZM519.353 143.015V155.015H531.353V143.015H519.353ZM519.353 112.596H531.353V100.596H519.353V112.596ZM465.547 121.247H453.547V133.247H465.547V121.247ZM470.398 121.247V133.247H482.398V121.247H470.398ZM470.208 112.596L470.222 100.596H470.208V112.596ZM225.86 43.2136L224.459 31.2958L224.164 55.0931L225.86 43.2136ZM230.806 77.2449H218.806V77.2576L230.806 77.2449ZM255.538 77.4353H267.538V65.4353H255.538V77.4353ZM255.538 92.5496V104.55H267.538V92.5496H255.538ZM220.913 92.5496L220.913 104.55H220.913V92.5496ZM211.02 85.0398H199.02V85.04L211.02 85.0398ZM211.02 49.4871H223.02V49.4747L223.02 49.4623L211.02 49.4871ZM206.17 49.2976V37.2976H194.17V49.2976H206.17ZM206.17 73.6326V85.6326H218.17V73.6326H206.17ZM186.384 73.6326H174.384V85.6326H186.384V73.6326ZM186.384 12.8894V0.889404H174.384V12.8894H186.384ZM46.4343 28.0994V40.0994H58.4343V28.0994H46.4343ZM32.7361 28.0994V16.0994H20.7361V28.0994H32.7361ZM32.7361 35.7039H20.7361V47.7039H32.7361V35.7039ZM46.2439 35.7039H58.2439V23.7039H46.2439V35.7039ZM46.2439 50.9128V62.9128H58.2439V50.9128H46.2439ZM32.7361 50.9128V38.9128H20.7361V50.9128H32.7361ZM32.7361 58.5183H20.7361V70.5183H32.7361V58.5183ZM46.5291 58.5183H58.5291V46.5183H46.5291V58.5183ZM46.5291 73.6326V85.6326H58.5291V73.6326H46.5291ZM12.9509 73.6326H0.950928V85.6326H12.9509V73.6326ZM12.9509 12.8894V0.889404H0.950928V12.8894H12.9509ZM46.4343 12.8894H58.4343V0.889404H46.4343V12.8894ZM74.907 26.0076L63.5996 30.0253L74.9082 61.8519L86.2147 30.0246L74.907 26.0076ZM79.5671 12.8894V0.889404H71.0954L68.2595 8.87241L79.5671 12.8894ZM95.2625 12.8894L106.453 17.2224L112.777 0.889404H95.2625V12.8894ZM84.5144 40.6472L73.324 36.3142L71.6605 40.6104L73.2994 44.9161L84.5144 40.6472ZM97.0701 73.6326V85.6326H114.478L108.285 69.3636L97.0701 73.6326ZM75.9529 73.6326L64.6714 77.7226L67.5391 85.6326H75.9529V73.6326ZM71.197 60.5144L82.4785 56.4244L71.4179 25.9159L59.9687 56.2807L71.197 60.5144ZM66.2507 73.6326V85.6326H74.5507L77.4791 77.8663L66.2507 73.6326ZM49.5085 73.6326L38.2925 69.3663L32.1053 85.6326H49.5085V73.6326ZM61.8748 41.1218L73.0908 45.3881L74.7573 41.0067L73.0128 36.6558L61.8748 41.1218ZM50.5544 12.8894V0.889404H32.8141L39.4164 17.3554L50.5544 12.8894ZM70.2458 12.8894L81.5533 8.87166L78.717 0.889404H70.2458V12.8894ZM144.136 43.2136L156.136 43.2138V43.2136H144.136ZM119.499 50.9128V38.9128H107.499V50.9128H119.499ZM119.499 73.6326V85.6326H131.499V73.6326H119.499ZM99.7136 73.6326H87.7136V85.6326H99.7136V73.6326ZM99.7136 12.8894V0.889404H87.7136V12.8894H99.7136ZM181.502 28.0994V40.0994H193.502V28.0994H181.502ZM167.804 28.0994V16.0994H155.804V28.0994H167.804ZM167.804 35.7039H155.804V47.7039H167.804V35.7039ZM181.311 35.7039H193.311V23.7039H181.311V35.7039ZM181.311 50.9128V62.9128H193.311V50.9128H181.311ZM167.804 50.9128V38.9128H155.804V50.9128H167.804ZM167.804 58.5183H155.804V70.5183H167.804V58.5183ZM181.597 58.5183H193.597V46.5183H181.597V58.5183ZM181.597 73.6326V85.6326H193.597V73.6326H181.597ZM148.018 73.6326H136.018V85.6326H148.018V73.6326ZM148.018 12.8894V0.889404H136.018V12.8894H148.018ZM181.502 12.8894H193.502V0.889404H181.502V12.8894ZM255.443 73.6326V85.6326H267.443V73.6326H255.443ZM235.657 73.6326H223.657V85.6326H235.657V73.6326ZM235.657 12.8894V0.889404H223.657V12.8894H235.657ZM255.443 12.8894H267.443V0.889404H255.443V12.8894ZM293.903 28.0994V40.0994H305.903V28.0994H293.903ZM280.206 28.0994V16.0994H268.206V28.0994H280.206ZM280.206 35.7039H268.206V47.7039H280.206V35.7039ZM293.713 35.7039H305.713V23.7039H293.713V35.7039ZM293.713 50.9128V62.9128H305.713V50.9128H293.713ZM280.206 50.9128V38.9128H268.206V50.9128H280.206ZM280.206 58.5183H268.206V70.5183H280.206V58.5183ZM293.999 58.5183H305.999V46.5183H293.999V58.5183ZM293.999 73.6326V85.6326H305.999V73.6326H293.999ZM260.42 73.6326H248.42V85.6326H260.42V73.6326ZM260.42 12.8894V0.889404H248.42V12.8894H260.42ZM293.903 12.8894H305.903V0.889404H293.903V12.8894ZM392.292 38.5554V50.5554H404.292V38.5554H392.292ZM372.506 38.5554H360.506V50.5554H372.506V38.5554ZM372.506 28.2888H384.506V28.2773L384.506 28.2657L372.506 28.2888ZM367.844 28.0994V16.0994L367.836 16.0994L367.844 28.0994ZM367.654 28.2888L355.654 28.2658L355.654 28.2773V28.2888H367.654ZM367.844 58.5183L367.836 70.5183H367.844V58.5183ZM372.506 44.1638V32.1638H360.506V44.1638H372.506ZM392.292 44.1638H404.292V32.1638H392.292V44.1638ZM392.292 66.1228L404.292 66.1228V66.1228H392.292ZM357.761 73.6326V85.6326V73.6326ZM347.869 66.1228H335.869V66.1228L347.869 66.1228ZM357.761 12.8894V0.889404V12.8894ZM430.551 28.0994V40.0994H442.551V28.0994H430.551ZM416.852 28.0994V16.0994H404.852V28.0994H416.852ZM416.852 35.7039H404.852V47.7039H416.852V35.7039ZM430.36 35.7039H442.36V23.7039H430.36V35.7039ZM430.36 50.9128V62.9128H442.36V50.9128H430.36ZM416.852 50.9128V38.9128H404.852V50.9128H416.852ZM416.852 58.5183H404.852V70.5183H416.852V58.5183ZM430.645 58.5183H442.645V46.5183H430.645V58.5183ZM430.645 73.6326V85.6326H442.645V73.6326H430.645ZM397.067 73.6326H385.067V85.6326H397.067V73.6326ZM397.067 12.8894V0.889404H385.067V12.8894H397.067ZM430.551 12.8894H442.551V0.889404H430.551V12.8894ZM206.17 37.2244H194.17V49.2244H206.17V37.2244ZM211.02 37.0349L223.02 37.0642L223.02 37.0496V37.0349H211.02ZM211.02 28.2888H223.02V28.2773L223.02 28.2657L211.02 28.2888ZM206.17 28.0994V16.0994H194.17V28.0994H206.17ZM119.499 36.5593H107.499V48.5593H119.499V36.5593ZM124.35 28.2888H136.35V28.2773L136.35 28.2658L124.35 28.2888ZM119.499 28.0994V16.0994H107.499V28.0994H119.499ZM205.808 168.618L214.61 176.774C213.856 177.589 213.455 177.49 214.398 177.21C215.243 176.959 216.665 176.72 218.649 176.72L218.649 164.72L218.649 152.72C212.043 152.721 202.905 154.096 197.006 160.462L205.808 168.618ZM218.649 164.72V176.72C219.593 176.72 220.166 176.784 220.472 176.836C220.762 176.885 220.749 176.913 220.557 176.828C220.343 176.733 220.099 176.583 219.887 176.401C219.693 176.236 219.652 176.151 219.752 176.29L229.494 169.283L239.236 162.276C237.158 159.387 234.326 156.683 230.297 154.894C226.504 153.209 222.503 152.72 218.649 152.72V164.72ZM229.494 169.283L238.885 176.753C238.86 176.785 238.748 176.907 238.568 177.026C238.4 177.136 238.336 177.136 238.501 177.086C238.691 177.027 239.108 176.926 239.869 176.847C240.633 176.766 241.614 176.72 242.906 176.72V164.72V152.72C236.186 152.72 226.74 153.469 220.103 161.813L229.494 169.283ZM242.906 164.72V176.72C244.414 176.72 244.971 177.127 244.785 177C244.656 176.912 244.229 176.585 243.815 175.884C243.372 175.135 243.082 174.182 243.082 173.181L255.082 173.18L267.082 173.18C267.081 165.904 263.031 160.404 258.339 157.194C253.777 154.072 248.247 152.72 242.906 152.72V164.72ZM255.082 173.18H243.082V229.076H255.082H267.082V173.18H255.082ZM255.082 229.076L243.082 229.087C243.085 233.038 244.943 235.978 246.654 237.69C248.365 239.402 251.31 241.266 255.272 241.266V229.266V217.266C259.139 217.266 261.989 219.083 263.629 220.724C265.268 222.364 267.078 225.209 267.082 229.065L255.082 229.076ZM255.272 229.266V241.266H291.419V229.266V217.266H255.272V229.266ZM291.419 229.266H279.419V230.048H291.419H303.419V229.266H291.419ZM291.419 230.048V242.048H291.683V230.048V218.048H291.419V230.048ZM291.683 230.048H279.683V245.257H291.683H303.683V230.048H291.683ZM291.683 245.257V257.257H306.427V245.257V233.257H291.683V245.257ZM306.427 245.257L306.427 257.257C306.861 257.257 307.183 257.278 307.407 257.303C307.631 257.328 307.729 257.354 307.725 257.352C307.723 257.352 307.188 257.213 306.475 256.66C305.702 256.06 305.064 255.235 304.677 254.336C304.5 253.925 304.409 253.578 304.364 253.335C304.32 253.096 304.32 252.96 304.32 252.957L316.32 252.957L328.32 252.957C328.32 247.59 326.423 241.764 321.195 237.704C316.536 234.086 310.949 233.257 306.428 233.257L306.427 245.257ZM316.32 252.957H304.32V298.49H316.32H328.32V252.957H316.32ZM316.32 298.49H304.32C304.32 298.442 304.328 297.83 304.718 296.946C305.139 295.992 305.818 295.151 306.605 294.557C307.325 294.013 307.849 293.889 307.817 293.897C307.771 293.908 307.354 294 306.427 294L306.427 306L306.428 318C310.87 318 316.412 317.224 321.065 313.711C326.357 309.717 328.32 303.899 328.32 298.49H316.32ZM306.427 306V294H271.897V306V318H306.427V306ZM271.897 306H283.897V244.381H271.897H259.897V306H271.897ZM271.897 244.381V232.381H245.38V244.381V256.381H271.897V244.381ZM245.38 244.381V232.381C245.515 232.381 245.605 232.393 245.65 232.401C245.673 232.405 245.689 232.409 245.698 232.411C245.706 232.413 245.71 232.415 245.711 232.415C245.711 232.415 245.709 232.414 245.707 232.413C245.705 232.413 245.705 232.412 245.706 232.413C245.707 232.413 245.732 232.426 245.781 232.463C245.843 232.509 246.178 232.766 246.555 233.376C246.944 234.005 247.486 235.206 247.486 236.87L235.486 236.871L223.486 236.871C223.486 244.056 227.922 249.087 231.447 251.712C235.205 254.511 240.156 256.381 245.38 256.381V244.381ZM235.486 236.871H247.486V180.12H235.486H223.486V236.871H235.486ZM235.486 180.12L247.486 180.095C247.478 176.165 245.636 173.228 243.911 171.504C242.186 169.779 239.254 167.944 235.337 167.93L235.297 179.93L235.256 191.93C231.434 191.917 228.597 190.13 226.942 188.476C225.289 186.823 223.494 183.979 223.486 180.144L235.486 180.12ZM235.297 179.93V167.93H230.635V179.93V191.93H235.297V179.93ZM230.635 179.93V167.93C226.71 167.93 223.771 169.763 222.045 171.479C220.319 173.194 218.453 176.139 218.445 180.095L230.445 180.12L242.445 180.144C242.437 184.006 240.619 186.856 238.965 188.5C237.31 190.145 234.466 191.93 230.635 191.93V179.93ZM230.445 180.12H218.445V225.464H230.445H242.445V180.12H230.445ZM230.445 225.464V213.464H210.659V225.464V237.464H230.445V225.464ZM210.659 225.464H222.659V180.12H210.659H198.659V225.464H210.659ZM210.659 180.12L222.659 180.095C222.651 176.139 220.785 173.194 219.059 171.479C217.333 169.763 214.394 167.93 210.469 167.93V179.93V191.93C206.638 191.93 203.794 190.145 202.139 188.5C200.485 186.856 198.667 184.006 198.659 180.144L210.659 180.12ZM210.469 179.93V167.93H205.998V179.93V191.93H210.469V179.93ZM205.998 179.93L205.967 167.93C202.044 167.941 199.109 169.778 197.382 171.505C195.656 173.231 193.816 176.169 193.808 180.095L205.808 180.12L217.808 180.144C217.8 183.976 216.008 186.819 214.353 188.475C212.697 190.131 209.856 191.92 206.029 191.93L205.998 179.93ZM205.808 180.12H193.808V225.464H205.808H217.808V180.12H205.808ZM205.808 225.464V213.464H186.022V225.464V237.464H205.808V225.464ZM186.022 225.464H198.022V164.72H186.022H174.022V225.464H186.022ZM186.022 164.72V176.72H205.808V164.72V152.72H186.022V164.72ZM205.808 164.72H193.808V168.618H205.808H217.808V164.72H205.808ZM355.47 245.257V257.257C355.904 257.257 356.226 257.278 356.45 257.303C356.674 257.328 356.773 257.354 356.768 257.352C356.766 257.352 356.231 257.213 355.519 256.66C354.747 256.06 354.108 255.236 353.721 254.337C353.544 253.926 353.453 253.579 353.408 253.335C353.364 253.096 353.364 252.96 353.364 252.957L365.364 252.957L377.364 252.957C377.364 247.589 375.466 241.763 370.238 237.703C365.579 234.086 359.992 233.257 355.47 233.257V245.257ZM365.364 252.957H353.364V298.49H365.364H377.364V252.957H365.364ZM365.364 298.49H353.364C353.364 298.442 353.372 297.83 353.762 296.946C354.183 295.991 354.863 295.15 355.649 294.556C356.369 294.013 356.893 293.889 356.86 293.897C356.814 293.908 356.398 294 355.47 294V306V318C359.913 318 365.455 317.224 370.108 313.712C375.4 309.718 377.364 303.9 377.364 298.49H365.364ZM355.47 306V294H330.834V306V318H355.47V306ZM330.834 306L330.834 294C329.907 294 329.491 293.908 329.444 293.897C329.412 293.889 329.936 294.013 330.656 294.557C331.443 295.151 332.122 295.992 332.543 296.947C332.933 297.83 332.941 298.442 332.941 298.49H320.941H308.941C308.941 303.899 310.905 309.717 316.196 313.711C320.849 317.224 326.392 318 330.834 318L330.834 306ZM320.941 298.49H332.941V252.957H320.941H308.941V298.49H320.941ZM320.941 252.957L332.941 252.957C332.941 252.96 332.941 253.096 332.897 253.335C332.852 253.578 332.762 253.925 332.585 254.336C332.197 255.235 331.559 256.06 330.786 256.66C330.074 257.213 329.539 257.352 329.536 257.352C329.532 257.354 329.63 257.328 329.855 257.303C330.078 257.278 330.4 257.257 330.834 257.257L330.834 245.257L330.834 233.257C326.313 233.257 320.725 234.086 316.066 237.704C310.838 241.764 308.941 247.59 308.941 252.957L320.941 252.957ZM330.834 245.257V257.257H355.47V245.257V233.257H330.834V245.257ZM393.677 258.376L404.984 262.393L409.645 249.274L398.338 245.257L387.03 241.239L382.369 254.358L393.677 258.376ZM398.338 245.257V257.257H414.033V245.257V233.257H398.338V245.257ZM414.033 245.257L402.843 240.923L392.094 268.681L403.284 273.014L414.474 277.348L425.223 249.59L414.033 245.257ZM403.284 273.014L392.069 277.284L404.626 310.269L415.841 306L427.055 301.731L414.499 268.745L403.284 273.014ZM415.841 306V294H394.723V306V318H415.841V306ZM394.723 306L406.005 301.91L401.249 288.792L389.968 292.882L378.686 296.972L383.442 310.09L394.723 306ZM389.968 292.882L378.739 288.647L373.792 301.765L385.02 306L396.248 310.234L401.196 297.116L389.968 292.882ZM385.02 306V294H368.279V306V318H385.02V306ZM368.279 306L379.495 310.266L391.861 277.756L380.645 273.49L369.429 269.224L357.063 301.733L368.279 306ZM380.645 273.49L391.783 269.024L380.463 240.791L369.325 245.257L358.187 249.722L369.507 277.956L380.645 273.49ZM369.325 245.257V257.257H389.015V245.257V233.257H369.325V245.257ZM389.015 245.257L377.708 249.274L382.369 262.393L393.677 258.376L404.984 254.358L400.323 241.239L389.015 245.257ZM291.683 290.885V302.885H296.344V290.885V278.885H291.683V290.885ZM296.344 290.885L296.371 302.885C300.328 302.877 303.272 301.01 304.987 299.284C306.702 297.558 308.534 294.62 308.534 290.695H296.534H284.534C284.534 286.865 286.319 284.022 287.963 282.367C289.607 280.713 292.456 278.894 296.318 278.886L296.344 290.885ZM296.534 290.695H308.534V260.657H296.534H284.534V290.695H296.534ZM296.534 260.657H308.534C308.534 256.732 306.702 253.794 304.987 252.068C303.272 250.342 300.328 248.475 296.371 248.467L296.344 260.467L296.318 272.467C292.456 272.458 289.607 270.639 287.963 268.985C286.319 267.33 284.534 264.487 284.534 260.657H296.534ZM296.344 260.467V248.467H291.683V260.467V272.467H296.344V260.467ZM291.683 260.467H279.683V290.885H291.683H303.683V260.467H291.683ZM340.917 260.467L340.908 248.467C336.954 248.47 334.013 250.329 332.301 252.041C330.589 253.752 328.726 256.697 328.726 260.657H340.726H352.726C352.726 264.522 350.911 267.371 349.271 269.012C347.63 270.652 344.784 272.464 340.926 272.467L340.917 260.467ZM340.726 260.657H328.726V290.695H340.726H352.726V260.657H340.726ZM340.726 290.695H328.726C328.726 294.655 330.589 297.6 332.301 299.311C334.013 301.023 336.954 302.882 340.908 302.885L340.917 290.885L340.926 278.885C344.784 278.888 347.63 280.7 349.271 282.34C350.911 283.981 352.726 286.83 352.726 290.695H340.726ZM340.917 290.885V302.885H345.387V290.885V278.885H340.917V290.885ZM345.387 290.885V302.885C349.345 302.885 352.291 301.024 354.005 299.31C355.718 297.597 357.578 294.652 357.578 290.695H345.578H333.578C333.578 286.833 335.39 283.984 337.032 282.342C338.674 280.699 341.525 278.885 345.387 278.885V290.885ZM345.578 290.695H357.578V260.657H345.578H333.578V290.695H345.578ZM345.578 260.657H357.578C357.578 256.7 355.718 253.755 354.005 252.042C352.291 250.328 349.346 248.467 345.387 248.467V260.467V272.467C341.525 272.467 338.674 270.653 337.032 269.01C335.39 267.368 333.578 264.519 333.578 260.657H345.578ZM345.387 260.467V248.467H340.917V260.467V272.467H345.387V260.467ZM481.677 164.72V176.72C482.575 176.72 482.945 176.813 482.939 176.811C482.911 176.804 482.346 176.651 481.611 176.072C480.815 175.445 480.183 174.602 479.809 173.714C479.466 172.9 479.474 172.377 479.474 172.421H491.474H503.474C503.474 167.167 501.677 161.327 496.463 157.219C491.801 153.547 486.19 152.72 481.677 152.72V164.72ZM491.474 172.421H479.474V190.101H491.474H503.474V172.421H491.474ZM491.474 190.101H479.474C479.474 189.327 479.748 187.107 481.717 185.109C482.592 184.222 483.494 183.713 484.155 183.439C484.785 183.178 485.194 183.13 485.222 183.127L486.623 195.045L488.024 206.963C491.21 206.588 495.407 205.407 498.806 201.961C502.392 198.324 503.474 193.823 503.474 190.101H491.474ZM486.623 195.045L484.927 206.924C485.16 206.958 483.509 206.795 481.801 205.064C479.858 203.094 479.569 200.885 479.569 200.083H491.569H503.569C503.569 196.334 502.472 191.844 498.888 188.21C495.539 184.815 491.415 183.607 488.319 183.165L486.623 195.045ZM491.569 200.083H479.569V229.076H491.569H503.569V200.083H491.569ZM491.569 229.076L479.569 229.086C479.572 233.043 481.435 235.984 483.143 237.692C484.852 239.4 487.79 241.26 491.742 241.266L491.76 229.266L491.777 217.266C495.634 217.272 498.477 219.084 500.114 220.721C501.751 222.358 503.566 225.203 503.569 229.066L491.569 229.076ZM491.76 229.266V241.266H615.252V229.266V217.266H491.76V229.266ZM615.252 229.266H603.252V244.381H615.252H627.252V229.266H615.252ZM615.252 244.381V232.381H481.677V244.381V256.381H615.252V244.381ZM481.677 244.381L481.677 232.381C480.75 232.381 480.333 232.289 480.287 232.278C480.255 232.27 480.779 232.394 481.499 232.938C482.286 233.532 482.965 234.373 483.386 235.327C483.776 236.211 483.784 236.823 483.784 236.871L471.784 236.871L459.784 236.871C459.784 242.28 461.748 248.098 467.039 252.092C471.692 255.605 477.234 256.381 481.676 256.381L481.677 244.381ZM471.784 236.871H483.784V201.318H471.784H459.784V236.871H471.784ZM471.784 201.318L483.784 201.291C483.775 197.336 481.909 194.392 480.185 192.678C478.459 190.962 475.52 189.129 471.594 189.129V201.129V213.129C467.762 213.129 464.918 211.343 463.264 209.698C461.611 208.054 459.793 205.206 459.784 201.345L471.784 201.318ZM471.594 201.129V189.129H466.932V201.129V213.129H471.594V201.129ZM466.932 201.129H454.932V225.464H466.932H478.932V201.129H466.932ZM466.932 225.464V213.464H447.147V225.464V237.464H466.932V225.464ZM447.147 225.464H459.147V164.72H447.147H435.147V225.464H447.147ZM447.147 164.72V176.72H481.677V164.72V152.72H447.147V164.72ZM278.958 189.341H266.958C266.958 193.298 268.818 196.242 270.531 197.956C272.245 199.67 275.19 201.531 279.148 201.531V189.531V177.531C283.011 177.531 285.861 179.345 287.503 180.987C289.145 182.629 290.958 185.479 290.958 189.341H278.958ZM279.148 189.531V201.531H283.619V189.531V177.531H279.148V189.531ZM283.619 189.531L283.628 201.531C287.581 201.528 290.523 199.669 292.235 197.957C293.947 196.245 295.809 193.3 295.809 189.341H283.809H271.809C271.809 185.476 273.624 182.627 275.265 180.986C276.905 179.345 279.752 177.534 283.61 177.531L283.619 189.531ZM283.809 189.341H295.809V164.72H283.809H271.809V189.341H283.809ZM283.809 164.72V176.72H303.594V164.72V152.72H283.809V164.72ZM303.594 164.72H291.594V191.432H303.594H315.594V164.72H303.594ZM303.594 191.432L291.594 191.432C291.594 191.976 291.561 192.378 291.521 192.659C291.482 192.938 291.44 193.073 291.433 193.094C291.427 193.113 291.456 193.018 291.554 192.852C291.655 192.682 291.805 192.478 292.007 192.274C292.21 192.069 292.418 191.911 292.601 191.8C292.779 191.692 292.893 191.653 292.9 191.65C292.903 191.649 292.796 191.685 292.548 191.721C292.298 191.757 291.928 191.79 291.419 191.79V203.79V215.79C297.345 215.79 303.998 214.279 309.07 209.151C314.119 204.047 315.594 197.385 315.594 191.432L303.594 191.432ZM291.419 203.79H279.419V225.464H291.419H303.419V203.79H291.419ZM291.419 225.464V213.464H271.634V225.464V237.464H291.419V225.464ZM271.634 225.464H283.634V203.79H271.634H259.634V225.464H271.634ZM271.634 203.79V191.79C271.088 191.79 270.683 191.756 270.399 191.716C270.115 191.676 269.975 191.633 269.948 191.624C269.924 191.616 270.013 191.643 270.172 191.737C270.336 191.834 270.533 191.979 270.732 192.175C270.931 192.372 271.083 192.573 271.189 192.747C271.292 192.917 271.327 193.02 271.325 193.015C271.322 193.006 271.282 192.885 271.244 192.62C271.206 192.354 271.172 191.964 271.172 191.432L259.172 191.432L247.172 191.432C247.172 197.455 248.709 204.155 253.866 209.25C258.996 214.317 265.683 215.79 271.634 215.79V203.79ZM259.172 191.432H271.172V164.72H259.172H247.172V191.432H259.172ZM259.172 164.72V176.72H278.958V164.72V152.72H259.172V164.72ZM278.958 164.72H266.958V189.341H278.958H290.958V164.72H278.958ZM341.96 164.72V176.72C342.393 176.72 342.715 176.742 342.939 176.767C343.163 176.792 343.262 176.817 343.257 176.816C343.255 176.816 342.72 176.677 342.007 176.124C341.235 175.523 340.596 174.699 340.209 173.8C340.032 173.389 339.942 173.042 339.897 172.799C339.852 172.559 339.852 172.424 339.852 172.421H351.852H363.852C363.852 167.054 361.956 161.228 356.727 157.168C352.068 153.55 346.481 152.72 341.96 152.72V164.72ZM351.852 172.421H339.852V183.637H351.852H363.852V172.421H351.852ZM351.852 183.637V171.637H332.067V183.637V195.637H351.852V183.637ZM332.067 183.637H344.067V180.12H332.067H320.067V183.637H332.067ZM332.067 180.12L344.067 180.094C344.059 176.138 342.193 173.194 340.468 171.479C338.741 169.763 335.803 167.93 331.877 167.93V179.93V191.93C328.046 191.93 325.202 190.145 323.547 188.5C321.894 186.856 320.075 184.007 320.067 180.145L332.067 180.12ZM331.877 179.93V167.93H327.406V179.93V191.93H331.877V179.93ZM327.406 179.93L327.405 167.93C323.48 167.931 320.541 169.763 318.815 171.479C317.09 173.194 315.224 176.138 315.216 180.095L327.216 180.12L339.216 180.145C339.207 184.007 337.389 186.856 335.735 188.5C334.081 190.145 331.237 191.93 327.407 191.93L327.406 179.93ZM327.216 180.12H315.216V187.344H327.216H339.216V180.12H327.216ZM327.216 187.344H315.216C315.216 191.301 317.076 194.246 318.789 195.96C320.503 197.674 323.448 199.535 327.405 199.535L327.406 187.535L327.407 175.535C331.269 175.535 334.119 177.348 335.761 178.991C337.403 180.633 339.216 183.483 339.216 187.344H327.216ZM327.406 187.535V199.535H341.96V187.535V175.535H327.406V187.535ZM341.96 187.535V199.535C342.887 199.535 343.303 199.626 343.349 199.638C343.382 199.646 342.857 199.521 342.137 198.978C341.35 198.384 340.671 197.543 340.25 196.588C339.86 195.704 339.852 195.092 339.852 195.045H351.852H363.852C363.852 189.636 361.889 183.818 356.597 179.823C351.945 176.311 346.402 175.535 341.96 175.535V187.535ZM351.852 195.045H339.852V217.954H351.852H363.852V195.045H351.852ZM351.852 217.954L339.852 217.954C339.852 217.906 339.86 217.294 340.25 216.41C340.671 215.456 341.35 214.615 342.137 214.021C342.857 213.477 343.382 213.353 343.349 213.361C343.303 213.372 342.887 213.464 341.96 213.464V225.464V237.464C346.402 237.464 351.945 236.688 356.597 233.175C361.889 229.181 363.852 223.363 363.852 217.954L351.852 217.954ZM341.96 225.464V213.464H317.323V225.464V237.464H341.96V225.464ZM317.323 225.464V213.464C316.396 213.464 315.98 213.372 315.933 213.361C315.901 213.353 316.426 213.477 317.146 214.021C317.932 214.615 318.612 215.456 319.033 216.41C319.423 217.294 319.43 217.906 319.43 217.954L307.43 217.954L295.43 217.954C295.43 223.363 297.394 229.181 302.685 233.175C307.338 236.688 312.881 237.464 317.323 237.464V225.464ZM307.43 217.954H319.43V206.547H307.43H295.43V217.954H307.43ZM307.43 206.547V218.547H327.216V206.547V194.547H307.43V206.547ZM327.216 206.547H315.216V210.159H327.216H339.216V206.547H327.216ZM327.216 210.159H315.216C315.216 214.116 317.076 217.061 318.789 218.774C320.503 220.488 323.448 222.349 327.405 222.349L327.406 210.349L327.407 198.349C331.269 198.35 334.119 200.163 335.761 201.805C337.403 203.448 339.216 206.297 339.216 210.159H327.216ZM327.406 210.349V222.349H331.877V210.349V198.349H327.406V210.349ZM331.877 210.349V222.349C335.835 222.349 338.78 220.488 340.494 218.774C342.207 217.06 344.067 214.116 344.067 210.159H332.067H320.067C320.067 206.297 321.879 203.448 323.521 201.805C325.164 200.163 328.014 198.349 331.877 198.349V210.349ZM332.067 210.159H344.067V202.934H332.067H320.067V210.159H332.067ZM332.067 202.934L344.067 202.924C344.064 198.973 342.206 196.032 340.495 194.32C338.784 192.608 335.838 190.744 331.877 190.744V202.744V214.744C328.01 214.744 325.16 212.927 323.52 211.287C321.88 209.646 320.07 206.801 320.067 202.944L332.067 202.934ZM331.877 202.744V190.744H317.323V202.744V214.744H331.877V202.744ZM317.323 202.744V190.744C316.889 190.744 316.567 190.722 316.343 190.698C316.119 190.672 316.02 190.647 316.025 190.648C316.027 190.649 316.562 190.787 317.275 191.341C318.048 191.941 318.686 192.766 319.074 193.665C319.251 194.076 319.341 194.423 319.386 194.666C319.43 194.906 319.43 195.041 319.43 195.045L307.43 195.045L295.43 195.045C295.43 200.412 297.327 206.238 302.556 210.298C307.216 213.915 312.803 214.744 317.323 214.744V202.744ZM307.43 195.045H319.43V172.421H307.43H295.43V195.045H307.43ZM307.43 172.421H319.43C319.43 172.424 319.43 172.559 319.386 172.799C319.341 173.042 319.251 173.389 319.074 173.8C318.687 174.699 318.048 175.523 317.275 176.124C316.563 176.677 316.028 176.816 316.026 176.816C316.021 176.817 316.119 176.792 316.344 176.767C316.567 176.742 316.889 176.72 317.323 176.72V164.72V152.72C312.802 152.72 307.215 153.55 302.555 157.168C297.327 161.228 295.43 167.054 295.43 172.421H307.43ZM317.323 164.72V176.72H341.96V164.72V152.72H317.323V164.72ZM379.31 168.618V180.618H403.947V168.618V156.618H379.31V168.618ZM403.947 168.618H391.947V183.637H403.947H415.947V168.618H403.947ZM403.947 183.637V171.637H379.31V183.637V195.637H403.947V183.637ZM379.31 183.637H367.31V210.159H379.31H391.31V183.637H379.31ZM379.31 210.159H367.31C367.31 214.084 369.142 217.022 370.857 218.748C372.572 220.474 375.516 222.34 379.473 222.349L379.5 210.349L379.527 198.349C383.388 198.358 386.238 200.177 387.882 201.831C389.526 203.486 391.31 206.329 391.31 210.159H379.31ZM379.5 210.349V222.349H384.066V210.349V198.349H379.5V210.349ZM384.066 210.349L384.079 222.349C388.03 222.345 390.97 220.487 392.682 218.776C394.393 217.065 396.257 214.12 396.257 210.159H384.257H372.257C372.257 206.293 374.073 203.443 375.712 201.804C377.352 200.164 380.197 198.353 384.053 198.349L384.066 210.349ZM384.257 210.159H396.257V187.535H384.257H372.257V210.159H384.257ZM384.257 187.535V199.535H403.947V187.535V175.535H384.257V187.535ZM403.947 187.535H391.947V217.954H403.947H415.947V187.535H403.947ZM403.947 217.954L391.947 217.954C391.947 217.906 391.955 217.293 392.345 216.41C392.766 215.455 393.446 214.614 394.232 214.02C394.952 213.477 395.476 213.352 395.443 213.361C395.397 213.372 394.981 213.464 394.053 213.464V225.464V237.464C398.496 237.464 404.038 236.688 408.691 233.176C413.983 229.182 415.947 223.364 415.947 217.954L403.947 217.954ZM394.053 225.464V213.464H369.417V225.464V237.464H394.053V225.464ZM369.417 225.464L369.417 213.464C368.49 213.464 368.074 213.372 368.027 213.361C367.995 213.353 368.52 213.477 369.239 214.021C370.026 214.615 370.705 215.456 371.126 216.41C371.516 217.294 371.524 217.906 371.524 217.954L359.524 217.954L347.524 217.954C347.524 223.363 349.488 229.181 354.779 233.175C359.432 236.688 364.974 237.464 369.417 237.464L369.417 225.464ZM359.524 217.954H371.524V183.637H359.524H347.524V217.954H359.524ZM359.524 183.637V171.637H354.673V183.637V195.637H359.524V183.637ZM354.673 183.637H366.673V168.618H354.673H342.673V183.637H354.673ZM354.673 168.618V180.618H359.524V168.618V156.618H354.673V168.618ZM359.524 168.618H371.524V164.72H359.524H347.524V168.618H359.524ZM359.524 164.72V176.72H379.31V164.72V152.72H359.524V164.72ZM379.31 164.72H367.31V168.618H379.31H391.31V164.72H379.31ZM442.265 179.93V167.93H428.567V179.93V191.93H442.265V179.93ZM428.567 179.93H416.567V187.535H428.567H440.567V179.93H428.567ZM428.567 187.535V199.535H442.075V187.535V175.535H428.567V187.535ZM442.075 187.535H430.075V202.744H442.075H454.075V187.535H442.075ZM442.075 202.744V190.744H428.567V202.744V214.744H442.075V202.744ZM428.567 202.744H416.567V210.349H428.567H440.567V202.744H428.567ZM428.567 210.349V222.349H442.36V210.349V198.349H428.567V210.349ZM442.36 210.349H430.36V225.464H442.36H454.36V210.349H442.36ZM442.36 225.464V213.464H408.782V225.464V237.464H442.36V225.464ZM408.782 225.464H420.782V164.72H408.782H396.782V225.464H408.782ZM408.782 164.72V176.72H442.265V164.72V152.72H408.782V164.72ZM442.265 164.72H430.265V179.93H442.265H454.265V164.72H442.265ZM515.445 189.341H503.445C503.445 193.303 505.31 196.248 507.02 197.958C508.731 199.668 511.67 201.526 515.619 201.531L515.635 189.531L515.652 177.531C519.506 177.536 522.349 179.346 523.989 180.985C525.628 182.624 527.445 185.473 527.445 189.341H515.445ZM515.635 189.531V201.531H520.106V189.531V177.531H515.635V189.531ZM520.106 189.531V201.531C524.064 201.531 527.01 199.67 528.723 197.956C530.437 196.242 532.297 193.297 532.297 189.341H520.297H508.297C508.297 185.479 510.109 182.629 511.751 180.987C513.393 179.344 516.243 177.531 520.106 177.531V189.531ZM520.297 189.341H532.297V164.72H520.297H508.297V189.341H520.297ZM520.297 164.72V176.72H540.083V164.72V152.72H520.297V164.72ZM540.083 164.72H528.083V191.432H540.083H552.083V164.72H540.083ZM540.083 191.432L528.083 191.432C528.083 191.976 528.049 192.378 528.009 192.659C527.97 192.938 527.928 193.073 527.921 193.094C527.915 193.112 527.944 193.018 528.043 192.852C528.144 192.682 528.293 192.478 528.495 192.273C528.698 192.069 528.906 191.911 529.089 191.8C529.267 191.692 529.381 191.653 529.388 191.65C529.391 191.649 529.284 191.685 529.036 191.721C528.786 191.757 528.417 191.79 527.907 191.79L527.907 203.79L527.907 215.79C533.833 215.79 540.486 214.279 545.558 209.151C550.607 204.047 552.083 197.385 552.083 191.432L540.083 191.432ZM527.907 203.79H515.907V225.464H527.907H539.907V203.79H527.907ZM527.907 225.464V213.464H508.121V225.464V237.464H527.907V225.464ZM508.121 225.464H520.121V203.79H508.121H496.121V225.464H508.121ZM508.121 203.79L508.121 191.79C507.576 191.79 507.17 191.756 506.886 191.716C506.603 191.676 506.463 191.633 506.436 191.624C506.412 191.616 506.501 191.643 506.66 191.738C506.824 191.835 507.022 191.979 507.22 192.176C507.42 192.372 507.571 192.573 507.677 192.747C507.78 192.917 507.815 193.021 507.813 193.016C507.81 193.007 507.771 192.886 507.732 192.62C507.694 192.354 507.66 191.965 507.66 191.432L495.66 191.432L483.66 191.432C483.66 197.454 485.197 204.155 490.354 209.249C495.483 214.317 502.17 215.79 508.121 215.79L508.121 203.79ZM495.66 191.432H507.66V164.72H495.66H483.66V191.432H495.66ZM495.66 164.72V176.72H515.445V164.72V152.72H495.66V164.72ZM515.445 164.72H503.445V189.341H515.445H527.445V164.72H515.445ZM466.932 189.055V201.055H471.594V189.055V177.055H466.932V189.055ZM471.594 189.055V201.055C475.52 201.055 478.459 199.222 480.184 197.507C481.91 195.792 483.775 192.848 483.784 188.893L471.784 188.866L459.784 188.839C459.793 184.979 461.61 182.13 463.264 180.486C464.919 178.841 467.762 177.055 471.594 177.055V189.055ZM471.784 188.866H483.784V180.12H471.784H459.784V188.866H471.784ZM471.784 180.12L483.784 180.094C483.775 176.138 481.91 173.194 480.184 171.479C478.458 169.763 475.52 167.93 471.594 167.93V179.93V191.93C467.762 191.93 464.919 190.145 463.264 188.5C461.61 186.856 459.792 184.007 459.784 180.145L471.784 180.12ZM471.594 179.93V167.93H466.932V179.93V191.93H471.594V179.93ZM466.932 179.93H454.932V189.055H466.932H478.932V179.93H466.932ZM318.571 16.7869L325.897 26.2908C326.3 25.9807 328.218 24.8894 333.315 24.8894V12.8894V0.889404C325.476 0.889404 317.501 2.46008 311.245 7.28294L318.571 16.7869ZM333.315 12.8894L333.315 24.8894C333.749 24.8894 334.071 24.9108 334.294 24.9358C334.519 24.9608 334.617 24.9864 334.612 24.9852C334.61 24.9846 334.075 24.8458 333.363 24.2926C332.59 23.6926 331.952 22.8679 331.564 21.969C331.387 21.5583 331.297 21.2112 331.252 20.9677C331.208 20.7283 331.208 20.593 331.208 20.5896H343.208H355.208C355.208 15.2225 353.311 9.39641 348.083 5.33666C343.423 1.71869 337.836 0.889472 333.315 0.889404L333.315 12.8894ZM343.208 20.5896H331.208V77.2449H343.208H355.208V20.5896H343.208ZM343.208 77.2449L331.208 77.2576C331.212 81.2075 333.069 84.1469 334.78 85.8585C336.49 87.5703 339.436 89.4353 343.398 89.4353V77.4353V65.4353C347.265 65.4353 350.116 67.2526 351.755 68.8929C353.394 70.5331 355.204 73.3772 355.208 77.2322L343.208 77.2449ZM343.398 77.4353V89.4353H392.292V77.4353V65.4353H343.398V77.4353ZM392.292 77.4353H380.292V92.5496H392.292H404.292V77.4353H392.292ZM392.292 92.5496V80.5496H333.41V92.5496V104.55H392.292V92.5496ZM333.41 92.5496V80.5496C332.448 80.5496 332.004 80.4562 331.936 80.4392C331.881 80.4255 332.397 80.5426 333.116 81.0815C333.904 81.6726 334.592 82.5161 335.019 83.4811C335.414 84.3733 335.422 84.9921 335.422 85.0396L323.422 85.0398L311.422 85.04C311.422 90.456 313.392 96.2915 318.722 100.286C323.39 103.785 328.951 104.55 333.41 104.55V92.5496ZM323.422 85.0398H335.422V28.2888H323.422H311.422V85.0398H323.422ZM323.422 28.2888L335.422 28.2657C335.414 24.3367 333.573 21.3984 331.847 19.6728C330.121 17.9467 327.187 16.1111 323.268 16.0994L323.232 28.0994L323.196 40.0993C319.372 40.0879 316.533 38.2997 314.878 36.6445C313.223 34.9898 311.429 32.1461 311.422 28.312L323.422 28.2888ZM323.232 28.0994V16.0994H318.76V28.0994V40.0994H323.232V28.0994ZM318.76 28.0994L318.722 16.0994C314.804 16.112 311.872 17.9469 310.146 19.6725C308.42 21.3975 306.579 24.3358 306.571 28.2657L318.571 28.2888L330.571 28.312C330.564 32.147 328.769 34.9907 327.115 36.6448C325.46 38.2994 322.622 40.087 318.799 40.0993L318.76 28.0994ZM318.571 28.2888H306.571V73.6326H318.571H330.571V28.2888H318.571ZM318.571 73.6326V61.6326H318.5V73.6326V85.6326H318.571V73.6326ZM318.5 73.6326H306.5V97.3865H318.5H330.5V73.6326H318.5ZM318.5 97.3865V109.386H333.244V97.3865V85.3865H318.5V97.3865ZM333.244 97.3865V109.386C333.678 109.386 334 109.408 334.223 109.433C334.448 109.458 334.546 109.483 334.541 109.482C334.539 109.482 334.004 109.343 333.292 108.79C332.519 108.189 331.88 107.365 331.493 106.466C331.316 106.055 331.226 105.708 331.181 105.465C331.137 105.225 331.136 105.09 331.136 105.087H343.136H355.136C355.136 99.7199 353.24 93.8936 348.012 89.8337C343.352 86.2156 337.765 85.3865 333.244 85.3865V97.3865ZM343.136 105.087H331.136V150.62H343.136H355.136V105.087H343.136ZM343.136 150.62H331.136C331.136 150.572 331.144 149.96 331.534 149.076C331.955 148.122 332.635 147.281 333.421 146.687C334.141 146.143 334.666 146.019 334.633 146.027C334.587 146.038 334.171 146.13 333.244 146.13V158.13V170.13C337.686 170.13 343.229 169.354 347.882 165.841C353.173 161.847 355.136 156.029 355.136 150.62H343.136ZM333.244 158.13V146.13H298.715V158.13V170.13H333.244V158.13ZM298.715 158.13H310.715V72.9353H298.715H286.715V158.13H298.715ZM298.715 72.9353V84.9353H298.785V72.9353V60.9353H298.715V72.9353ZM298.785 72.9353H310.785V12.8894H298.785H286.785V72.9353H298.785ZM298.785 12.8894V24.8894H318.571V12.8894V0.889404H298.785V12.8894ZM318.571 12.8894H306.571V16.7869H318.571H330.571V12.8894H318.571ZM382.288 97.3865L382.288 109.386C382.721 109.386 383.043 109.408 383.267 109.433C383.491 109.458 383.59 109.483 383.585 109.482C383.583 109.482 383.048 109.343 382.335 108.79C381.563 108.19 380.924 107.365 380.537 106.466C380.36 106.055 380.27 105.708 380.225 105.465C380.18 105.225 380.18 105.09 380.18 105.087H392.18H404.18C404.18 99.7197 402.283 93.8935 397.055 89.8337C392.396 86.2157 386.809 85.3865 382.288 85.3865L382.288 97.3865ZM392.18 105.087H380.18V158.13H392.18H404.18V105.087H392.18ZM392.18 158.13V146.13H357.651V158.13V170.13H392.18V158.13ZM357.651 158.13V146.13C356.724 146.13 356.308 146.038 356.261 146.027C356.228 146.018 356.753 146.143 357.473 146.686C358.259 147.28 358.938 148.121 359.36 149.076C359.75 149.959 359.758 150.572 359.758 150.62H347.758H335.758C335.758 156.03 337.722 161.848 343.014 165.842C347.666 169.354 353.209 170.13 357.651 170.13V158.13ZM347.758 150.62H359.758V127.711H347.758H335.758V150.62H347.758ZM347.758 127.711L359.758 127.711C359.758 127.759 359.75 128.371 359.36 129.255C358.939 130.21 358.259 131.051 357.473 131.644C356.753 132.187 356.228 132.312 356.261 132.304C356.308 132.292 356.724 132.201 357.651 132.201V120.201V108.201C353.209 108.201 347.666 108.977 343.014 112.489C337.722 116.483 335.758 122.3 335.758 127.711L347.758 127.711ZM357.651 120.201V132.201H372.395V120.201V108.201H357.651V120.201ZM372.395 120.201H384.395V112.787H372.395H360.395V120.201H372.395ZM372.395 112.787H384.395C384.395 108.822 382.528 105.877 380.819 104.169C379.109 102.46 376.175 100.605 372.23 100.596L372.205 112.596L372.18 124.596C368.33 124.588 365.49 122.781 363.852 121.143C362.215 119.507 360.395 116.657 360.395 112.787H372.395ZM372.205 112.596V100.596H367.734V112.596V124.596H372.205V112.596ZM367.734 112.596V100.596C363.776 100.596 360.831 102.458 359.117 104.172C357.404 105.885 355.544 108.83 355.544 112.787H367.544H379.544C379.544 116.649 377.731 119.498 376.09 121.14C374.447 122.783 371.597 124.596 367.734 124.596V112.596ZM367.544 112.787H355.544V116.303H367.544H379.544V112.787H367.544ZM367.544 116.303V104.303H347.758V116.303V128.303H367.544V116.303ZM347.758 116.303H359.758V105.087H347.758H335.758V116.303H347.758ZM347.758 105.087H359.758C359.758 105.09 359.758 105.226 359.713 105.465C359.668 105.709 359.578 106.056 359.401 106.467C359.013 107.366 358.375 108.19 357.602 108.79C356.89 109.343 356.355 109.482 356.353 109.482C356.349 109.483 356.447 109.458 356.672 109.433C356.895 109.408 357.217 109.386 357.651 109.386V97.3865V85.3865C353.13 85.3865 347.543 86.2156 342.884 89.8332C337.655 93.8926 335.758 99.7187 335.758 105.087H347.758ZM357.651 97.3865V109.386H382.288V97.3865V85.3865H357.651V97.3865ZM431.336 97.3865L431.336 109.386C431.769 109.386 432.091 109.408 432.315 109.433C432.539 109.458 432.638 109.483 432.633 109.482C432.631 109.482 432.096 109.343 431.383 108.79C430.611 108.19 429.972 107.365 429.585 106.466C429.408 106.055 429.318 105.708 429.273 105.465C429.228 105.225 429.228 105.09 429.228 105.087H441.228H453.228C453.228 99.7198 451.331 93.8936 446.103 89.8337C441.444 86.2157 435.857 85.3865 431.336 85.3865L431.336 97.3865ZM441.228 105.087H429.228V116.303H441.228H453.228V105.087H441.228ZM441.228 116.303V104.303H421.443V116.303V128.303H441.228V116.303ZM421.443 116.303H433.443V112.787H421.443H409.443V116.303H421.443ZM421.443 112.787H433.443C433.443 108.825 431.578 105.88 429.868 104.17C428.157 102.459 425.218 100.602 421.269 100.596L421.253 112.596L421.237 124.596C417.382 124.591 414.539 122.781 412.899 121.142C411.26 119.504 409.443 116.654 409.443 112.787H421.443ZM421.253 112.596V100.596H416.782V112.596V124.596H421.253V112.596ZM416.782 112.596V100.596C412.824 100.596 409.879 102.458 408.165 104.172C406.452 105.885 404.592 108.83 404.592 112.787H416.592H428.592C428.592 116.649 426.779 119.498 425.137 121.14C423.495 122.783 420.645 124.596 416.782 124.596V112.596ZM416.592 112.787H404.592V120.01H416.592H428.592V112.787H416.592ZM416.592 120.01H404.592C404.592 123.967 406.451 126.912 408.165 128.626C409.879 130.34 412.824 132.201 416.782 132.201V120.201V108.201C420.645 108.201 423.495 110.014 425.137 111.657C426.779 113.299 428.592 116.149 428.592 120.01H416.592ZM416.782 120.201V132.201H431.336V120.201V108.201H416.782V120.201ZM431.336 120.201L431.336 132.201C432.263 132.201 432.679 132.292 432.725 132.304C432.758 132.312 432.233 132.187 431.513 131.644C430.726 131.05 430.047 130.209 429.626 129.254C429.236 128.371 429.228 127.759 429.228 127.711L441.228 127.711L453.228 127.711C453.228 122.301 451.265 116.484 445.973 112.489C441.32 108.977 435.778 108.201 431.336 108.201L431.336 120.201ZM441.228 127.711H429.228V150.62H441.228H453.228V127.711H441.228ZM441.228 150.62H429.228C429.228 150.572 429.236 149.96 429.626 149.076C430.047 148.122 430.726 147.281 431.513 146.687C432.233 146.143 432.758 146.019 432.725 146.027C432.679 146.038 432.263 146.13 431.336 146.13L431.336 158.13L431.336 170.13C435.778 170.13 441.32 169.354 445.973 165.841C451.265 161.847 453.228 156.029 453.228 150.62H441.228ZM431.336 158.13V146.13H406.699V158.13V170.13H431.336V158.13ZM406.699 158.13V146.13C405.772 146.13 405.356 146.038 405.309 146.027C405.276 146.018 405.801 146.143 406.52 146.686C407.307 147.28 407.986 148.121 408.408 149.076C408.797 149.959 408.805 150.572 408.805 150.62H396.805H384.805C384.805 156.03 386.77 161.848 392.061 165.842C396.714 169.354 402.257 170.13 406.699 170.13V158.13ZM396.805 150.62H408.805V139.213H396.805H384.805V150.62H396.805ZM396.805 139.213V151.213H416.592V139.213V127.213H396.805V139.213ZM416.592 139.213H404.592V142.825H416.592H428.592V139.213H416.592ZM416.592 142.825H404.592C404.592 146.782 406.452 149.726 408.165 151.44C409.879 153.154 412.824 155.015 416.782 155.015V143.015V131.015C420.645 131.015 423.495 132.829 425.137 134.471C426.779 136.114 428.592 138.963 428.592 142.825H416.592ZM416.782 143.015V155.015H421.253V143.015V131.015H416.782V143.015ZM421.253 143.015L421.268 155.015C425.218 155.01 428.157 153.153 429.868 151.442C431.578 149.732 433.443 146.787 433.443 142.825H421.443H409.443C409.443 138.958 411.26 136.108 412.899 134.47C414.539 132.83 417.382 131.02 421.237 131.015L421.253 143.015ZM421.443 142.825H433.443V135.6H421.443H409.443V142.825H421.443ZM421.443 135.6L433.443 135.574C433.435 131.613 431.564 128.669 429.842 126.958C428.118 125.245 425.187 123.416 421.269 123.411L421.253 135.411L421.237 147.411C417.414 147.406 414.577 145.624 412.925 143.982C411.274 142.342 409.452 139.493 409.443 135.626L421.443 135.6ZM421.253 135.411V123.411H406.699V135.411V147.411H421.253V135.411ZM406.699 135.411V123.411C406.265 123.411 405.943 123.389 405.72 123.365C405.495 123.339 405.397 123.314 405.401 123.315C405.403 123.316 405.938 123.454 406.65 124.007C407.423 124.607 408.061 125.432 408.449 126.331C408.626 126.741 408.716 127.089 408.761 127.332C408.805 127.572 408.805 127.707 408.805 127.711H396.805H384.805C384.805 133.079 386.703 138.905 391.932 142.964C396.591 146.582 402.178 147.411 406.699 147.411V135.411ZM396.805 127.711H408.805V105.087H396.805H384.805V127.711H396.805ZM396.805 105.087H408.805C408.805 105.09 408.805 105.226 408.761 105.465C408.716 105.709 408.626 106.056 408.449 106.467C408.061 107.366 407.423 108.19 406.65 108.79C405.938 109.343 405.403 109.482 405.401 109.482C405.397 109.483 405.495 109.458 405.72 109.433C405.943 109.408 406.265 109.386 406.699 109.386V97.3865V85.3865C402.178 85.3865 396.591 86.2156 391.932 89.8332C386.703 93.8926 384.805 99.7187 384.805 105.087H396.805ZM406.699 97.3865V109.386H431.336V97.3865V85.3865H406.699V97.3865ZM480.291 97.3865L480.291 109.386C480.724 109.386 481.046 109.408 481.27 109.433C481.494 109.458 481.593 109.483 481.588 109.482C481.586 109.482 481.051 109.343 480.338 108.79C479.566 108.19 478.927 107.365 478.54 106.466C478.363 106.055 478.273 105.708 478.228 105.465C478.183 105.225 478.183 105.09 478.183 105.087H490.183H502.183C502.183 99.7198 500.286 93.8936 495.058 89.8337C490.399 86.2156 484.812 85.3865 480.291 85.3865L480.291 97.3865ZM490.183 105.087H478.183V135.411H490.183H502.183V105.087H490.183ZM490.183 135.411V123.411H465.547V135.411V147.411H490.183V135.411ZM465.547 135.411H453.547V142.825H465.547H477.547V135.411H465.547ZM465.547 142.825H453.547C453.547 146.782 455.407 149.726 457.12 151.44C458.834 153.154 461.779 155.015 465.737 155.015V143.015V131.015C469.6 131.015 472.45 132.829 474.092 134.471C475.734 136.114 477.547 138.963 477.547 142.825H465.547ZM465.737 143.015V155.015H470.208V143.015V131.015H465.737V143.015ZM470.208 143.015L470.222 155.015C474.172 155.011 477.112 153.153 478.823 151.442C480.534 149.731 482.398 146.786 482.398 142.825H470.398H458.398C458.398 138.958 460.215 136.109 461.854 134.47C463.494 132.83 466.338 131.02 470.194 131.015L470.208 143.015ZM470.398 142.825H482.398V139.213H470.398H458.398V142.825H470.398ZM470.398 139.213V151.213H490.183V139.213V127.213H470.398V139.213ZM490.183 139.213H478.183V150.62H490.183H502.183V139.213H490.183ZM490.183 150.62H478.183C478.183 150.572 478.191 149.96 478.581 149.076C479.002 148.122 479.681 147.281 480.468 146.687C481.188 146.143 481.713 146.019 481.68 146.027C481.634 146.038 481.218 146.13 480.291 146.13L480.291 158.13L480.291 170.13C484.733 170.13 490.276 169.354 494.928 165.841C500.22 161.847 502.183 156.029 502.183 150.62H490.183ZM480.291 158.13V146.13H455.654V158.13V170.13H480.291V158.13ZM455.654 158.13V146.13C454.727 146.13 454.311 146.038 454.264 146.027C454.231 146.018 454.756 146.143 455.475 146.686C456.262 147.28 456.941 148.121 457.363 149.076C457.753 149.959 457.76 150.572 457.76 150.62H445.76H433.76C433.76 156.03 435.725 161.848 441.016 165.842C445.669 169.354 451.212 170.13 455.654 170.13V158.13ZM445.76 150.62H457.76V105.087H445.76H433.76V150.62H445.76ZM445.76 105.087H457.76C457.76 105.09 457.76 105.226 457.716 105.465C457.671 105.709 457.581 106.056 457.404 106.467C457.016 107.366 456.378 108.19 455.605 108.79C454.893 109.343 454.358 109.482 454.356 109.482C454.352 109.483 454.45 109.458 454.675 109.433C454.898 109.408 455.22 109.386 455.654 109.386V97.3865V85.3865C451.133 85.3865 445.546 86.2156 440.887 89.8332C435.658 93.8926 433.76 99.7187 433.76 105.087H445.76ZM455.654 97.3865V109.386H480.291V97.3865V85.3865H455.654V97.3865ZM539.138 158.13V146.13H504.609V158.13V170.13H539.138V158.13ZM504.609 158.13V146.13C503.572 146.13 503.118 146.031 503.069 146.019C503.041 146.012 503.634 146.153 504.424 146.763C505.29 147.431 505.973 148.341 506.372 149.296C506.731 150.157 506.716 150.702 506.716 150.62H494.716H482.716C482.716 155.696 484.389 161.619 489.764 165.765C494.475 169.399 500.144 170.13 504.609 170.13V158.13ZM494.716 150.62H506.716V105.087H494.716H482.716V150.62H494.716ZM494.716 105.087H506.716C506.716 105.09 506.716 105.226 506.671 105.465C506.626 105.709 506.536 106.056 506.359 106.467C505.971 107.366 505.333 108.19 504.56 108.79C503.848 109.343 503.313 109.482 503.311 109.482C503.307 109.483 503.405 109.458 503.63 109.433C503.853 109.408 504.175 109.386 504.609 109.386V97.3865V85.3865C500.088 85.3865 494.501 86.2156 489.842 89.8332C484.613 93.8926 482.716 99.7187 482.716 105.087H494.716ZM504.609 97.3865V109.386H519.353V97.3865V85.3865H504.609V97.3865ZM519.353 97.3865H531.353V82.1775H519.353H507.353V97.3865H519.353ZM519.353 82.1775V94.1775H539.138V82.1775V70.1775H519.353V82.1775ZM539.138 82.1775H527.138V158.13H539.138H551.138V82.1775H539.138ZM318.5 143.015V155.015H323.161V143.015V131.015H318.5V143.015ZM323.161 143.015V155.015C327.119 155.015 330.064 153.154 331.778 151.44C333.491 149.726 335.351 146.782 335.351 142.825H323.351H311.351C311.351 138.963 313.164 136.114 314.806 134.471C316.448 132.829 319.298 131.015 323.161 131.015V143.015ZM323.351 142.825H335.351V112.786H323.351H311.351V142.825H323.351ZM323.351 112.786L335.351 112.748C335.339 108.798 333.476 105.86 331.753 104.147C330.03 102.433 327.091 100.596 323.161 100.596V112.596V124.596C319.325 124.596 316.482 122.807 314.83 121.164C313.179 119.523 311.364 116.679 311.351 112.824L323.351 112.786ZM323.161 112.596V100.596H318.5V112.596V124.596H323.161V112.596ZM318.5 112.596H306.5V143.015H318.5H330.5V112.596H318.5ZM367.734 133.51V121.51C363.776 121.51 360.831 123.371 359.117 125.085C357.404 126.799 355.544 129.743 355.544 133.7H367.544H379.544C379.544 137.562 377.731 140.411 376.089 142.053C374.447 143.696 371.597 145.51 367.734 145.51V133.51ZM367.544 133.7H355.544V142.825H367.544H379.544V133.7H367.544ZM367.544 142.825H355.544C355.544 146.782 357.404 149.726 359.117 151.44C360.831 153.154 363.776 155.015 367.734 155.015V143.015V131.015C371.597 131.015 374.447 132.829 376.089 134.471C377.731 136.114 379.544 138.963 379.544 142.825H367.544ZM367.734 143.015V155.015H372.395V143.015V131.015H367.734V143.015ZM372.395 143.015H384.395V133.51H372.395H360.395V143.015H372.395ZM372.395 133.51V121.51H367.734V133.51V145.51H372.395V133.51ZM514.692 112.596V100.596C510.762 100.596 507.823 102.433 506.1 104.147C504.377 105.86 502.514 108.799 502.502 112.749L514.502 112.786L526.502 112.823C526.49 116.678 524.674 119.522 523.023 121.165C521.371 122.807 518.527 124.596 514.692 124.596V112.596ZM514.502 112.786H502.502V142.825H514.502H526.502V112.786H514.502ZM514.502 142.825H502.502C502.502 146.782 504.362 149.726 506.075 151.44C507.789 153.154 510.734 155.015 514.692 155.015V143.015V131.015C518.555 131.015 521.405 132.829 523.047 134.471C524.689 136.114 526.502 138.963 526.502 142.825H514.502ZM514.692 143.015V155.015H519.353V143.015V131.015H514.692V143.015ZM519.353 143.015H531.353V112.596H519.353H507.353V143.015H519.353ZM519.353 112.596V100.596H514.692V112.596V124.596H519.353V112.596ZM465.737 112.596V100.596C461.779 100.596 458.834 102.458 457.12 104.172C455.407 105.885 453.547 108.83 453.547 112.787H465.547H477.547C477.547 116.649 475.734 119.498 474.092 121.14C472.45 122.783 469.6 124.596 465.737 124.596V112.596ZM465.547 112.787H453.547V121.247H465.547H477.547V112.787H465.547ZM465.547 121.247V133.247H470.398V121.247V109.247H465.547V121.247ZM470.398 121.247H482.398V112.787H470.398H458.398V121.247H470.398ZM470.398 112.787H482.398C482.398 108.825 480.534 105.88 478.823 104.17C477.112 102.459 474.173 100.601 470.222 100.596L470.208 112.596L470.194 124.596C466.338 124.592 463.494 122.782 461.854 121.142C460.215 119.503 458.398 116.653 458.398 112.787H470.398ZM470.208 112.596V100.596H465.737V112.596V124.596H470.208V112.596ZM220.913 12.8894V24.8894C221.812 24.8894 222.181 24.9815 222.175 24.9798C222.148 24.9727 221.582 24.8201 220.847 24.2407C220.052 23.6141 219.42 22.7707 219.045 21.8825C218.702 21.0694 218.711 20.546 218.711 20.5896H230.711H242.711C242.711 15.3356 240.913 9.49636 235.699 5.38843C231.037 1.71548 225.427 0.889404 220.913 0.889404V12.8894ZM230.711 20.5896H218.711V38.2703H230.711H242.711V20.5896H230.711ZM230.711 38.2703H218.711C218.711 37.497 218.984 35.2769 220.953 33.2795C221.828 32.392 222.73 31.8821 223.392 31.608C224.022 31.3471 224.431 31.299 224.459 31.2958L225.86 43.2136L227.262 55.1315C230.448 54.7568 234.645 53.5759 238.043 50.1292C241.63 46.4918 242.711 41.9903 242.711 38.2703H230.711ZM225.86 43.2136L224.164 55.0931C224.397 55.1264 222.746 54.9639 221.038 53.2329C219.095 51.2631 218.806 49.0545 218.806 48.2517H230.806H242.806C242.806 44.5022 241.709 40.0122 238.125 36.3789C234.777 32.9844 230.653 31.7762 227.556 31.3341L225.86 43.2136ZM230.806 48.2517H218.806V77.2449H230.806H242.806V48.2517H230.806ZM230.806 77.2449L218.806 77.2576C218.811 81.2075 220.668 84.1469 222.378 85.8585C224.089 87.5703 227.035 89.4353 230.997 89.4353V77.4353V65.4353C234.864 65.4353 237.714 67.2526 239.354 68.8929C240.993 70.5331 242.802 73.3772 242.806 77.2321L230.806 77.2449ZM230.997 77.4353V89.4353H255.538V77.4353V65.4353H230.997V77.4353ZM255.538 77.4353H243.538V92.5496H255.538H267.538V77.4353H255.538ZM255.538 92.5496V80.5496H220.913V92.5496V104.55H255.538V92.5496ZM220.913 92.5496L220.913 80.5496C219.986 80.5495 219.57 80.4583 219.524 80.4466C219.491 80.4384 220.016 80.5632 220.736 81.1065C221.522 81.7003 222.201 82.5412 222.623 83.4958C223.012 84.3795 223.02 84.9915 223.02 85.0396L211.02 85.0398L199.02 85.04C199.02 90.4495 200.984 96.2668 206.275 100.261C210.928 103.774 216.47 104.549 220.913 104.55L220.913 92.5496ZM211.02 85.0398H223.02V49.4871H211.02H199.02V85.0398H211.02ZM211.02 49.4871L223.02 49.4623C223.012 45.5057 221.146 42.5614 219.421 40.8462C217.694 39.1301 214.756 37.2976 210.83 37.2976V49.2976V61.2976C206.999 61.2976 204.156 59.5124 202.501 57.8672C200.847 56.223 199.028 53.3734 199.02 49.5118L211.02 49.4871ZM210.83 49.2976V37.2976H206.17V49.2976V61.2976H210.83V49.2976ZM206.17 49.2976H194.17V73.6326H206.17H218.17V49.2976H206.17ZM206.17 73.6326V61.6326H186.384V73.6326V85.6326H206.17V73.6326ZM186.384 73.6326H198.384V12.8894H186.384H174.384V73.6326H186.384ZM186.384 12.8894V24.8894H220.913V12.8894V0.889404H186.384V12.8894ZM46.4343 28.0994V16.0994H32.7361V28.0994V40.0994H46.4343V28.0994ZM32.7361 28.0994H20.7361V35.7039H32.7361H44.7361V28.0994H32.7361ZM32.7361 35.7039V47.7039H46.2439V35.7039V23.7039H32.7361V35.7039ZM46.2439 35.7039H34.2439V50.9128H46.2439H58.2439V35.7039H46.2439ZM46.2439 50.9128V38.9128H32.7361V50.9128V62.9128H46.2439V50.9128ZM32.7361 50.9128H20.7361V58.5183H32.7361H44.7361V50.9128H32.7361ZM32.7361 58.5183V70.5183H46.5291V58.5183V46.5183H32.7361V58.5183ZM46.5291 58.5183H34.5291V73.6326H46.5291H58.5291V58.5183H46.5291ZM46.5291 73.6326V61.6326H12.9509V73.6326V85.6326H46.5291V73.6326ZM12.9509 73.6326H24.9509V12.8894H12.9509H0.950928V73.6326H12.9509ZM12.9509 12.8894V24.8894H46.4343V12.8894V0.889404H12.9509V12.8894ZM46.4343 12.8894H34.4343V28.0994H46.4343H58.4343V12.8894H46.4343ZM74.907 26.0076L86.2147 30.0246L90.8748 16.9064L79.5671 12.8894L68.2595 8.87241L63.5993 21.9906L74.907 26.0076ZM79.5671 12.8894V24.8894H95.2625V12.8894V0.889404H79.5671V12.8894ZM95.2625 12.8894L84.0721 8.55639L73.324 36.3142L84.5144 40.6472L95.7048 44.9802L106.453 17.2224L95.2625 12.8894ZM84.5144 40.6472L73.2994 44.9161L85.8551 77.9015L97.0701 73.6326L108.285 69.3636L95.7294 36.3783L84.5144 40.6472ZM97.0701 73.6326V61.6326H75.9529V73.6326V85.6326H97.0701V73.6326ZM75.9529 73.6326L87.2344 69.5426L82.4785 56.4244L71.197 60.5144L59.9155 64.6044L64.6714 77.7226L75.9529 73.6326ZM71.197 60.5144L59.9687 56.2807L55.0224 69.3988L66.2507 73.6326L77.4791 77.8663L82.4254 64.7481L71.197 60.5144ZM66.2507 73.6326V61.6326H49.5085V73.6326V85.6326H66.2507V73.6326ZM49.5085 73.6326L60.7246 77.8988L73.0908 45.3881L61.8748 41.1218L50.6587 36.8556L38.2925 69.3663L49.5085 73.6326ZM61.8748 41.1218L73.0128 36.6558L61.6924 8.42342L50.5544 12.8894L39.4164 17.3554L50.7368 45.5878L61.8748 41.1218ZM50.5544 12.8894V24.8894H70.2458V12.8894V0.889404H50.5544V12.8894ZM70.2458 12.8894L58.9384 16.9071L63.5996 30.0253L74.907 26.0076L86.2144 21.9898L81.5533 8.87166L70.2458 12.8894ZM134.243 12.8894V24.8894C134.677 24.8894 134.999 24.9108 135.222 24.9358C135.447 24.9608 135.545 24.9864 135.541 24.9852C135.539 24.9847 135.004 24.846 134.292 24.293C133.519 23.6932 132.881 22.8686 132.493 21.9696C132.316 21.5588 132.226 21.2116 132.181 20.968C132.137 20.7286 132.136 20.5932 132.136 20.5896H144.136H156.136C156.136 15.2217 154.239 9.39555 149.01 5.33612C144.351 1.71855 138.764 0.889404 134.243 0.889404V12.8894ZM144.136 20.5896H132.136V43.2136H144.136H156.136V20.5896H144.136ZM144.136 43.2136L132.136 43.2134C132.136 43.2098 132.137 43.0744 132.181 42.8348C132.226 42.5911 132.316 42.2438 132.493 41.8329C132.881 40.9336 133.52 40.1089 134.292 39.5091C135.005 38.9561 135.54 38.8174 135.541 38.817C135.546 38.8158 135.447 38.8414 135.223 38.8665C134.999 38.8914 134.677 38.9128 134.243 38.9128V50.9128V62.9128C138.763 62.9128 144.35 62.0842 149.009 58.4672C154.238 54.4081 156.136 48.5819 156.136 43.2138L144.136 43.2136ZM134.243 50.9128V38.9128H119.499V50.9128V62.9128H134.243V50.9128ZM119.499 50.9128H107.499V73.6326H119.499H131.499V50.9128H119.499ZM119.499 73.6326V61.6326H99.7136V73.6326V85.6326H119.499V73.6326ZM99.7136 73.6326H111.714V12.8894H99.7136H87.7136V73.6326H99.7136ZM99.7136 12.8894V24.8894H134.243V12.8894V0.889404H99.7136V12.8894ZM181.502 28.0994V16.0994H167.804V28.0994V40.0994H181.502V28.0994ZM167.804 28.0994H155.804V35.7039H167.804H179.804V28.0994H167.804ZM167.804 35.7039V47.7039H181.311V35.7039V23.7039H167.804V35.7039ZM181.311 35.7039H169.311V50.9128H181.311H193.311V35.7039H181.311ZM181.311 50.9128V38.9128H167.804V50.9128V62.9128H181.311V50.9128ZM167.804 50.9128H155.804V58.5183H167.804H179.804V50.9128H167.804ZM167.804 58.5183V70.5183H181.597V58.5183V46.5183H167.804V58.5183ZM181.597 58.5183H169.597V73.6326H181.597H193.597V58.5183H181.597ZM181.597 73.6326V61.6326H148.018V73.6326V85.6326H181.597V73.6326ZM148.018 73.6326H160.018V12.8894H148.018H136.018V73.6326H148.018ZM148.018 12.8894V24.8894H181.502V12.8894V0.889404H148.018V12.8894ZM181.502 12.8894H169.502V28.0994H181.502H193.502V12.8894H181.502ZM255.443 73.6326V61.6326H235.657V73.6326V85.6326H255.443V73.6326ZM235.657 73.6326H247.657V12.8894H235.657H223.657V73.6326H235.657ZM235.657 12.8894V24.8894H255.443V12.8894V0.889404H235.657V12.8894ZM255.443 12.8894H243.443V73.6326H255.443H267.443V12.8894H255.443ZM293.903 28.0994V16.0994H280.206V28.0994V40.0994H293.903V28.0994ZM280.206 28.0994H268.206V35.7039H280.206H292.206V28.0994H280.206ZM280.206 35.7039V47.7039H293.713V35.7039V23.7039H280.206V35.7039ZM293.713 35.7039H281.713V50.9128H293.713H305.713V35.7039H293.713ZM293.713 50.9128V38.9128H280.206V50.9128V62.9128H293.713V50.9128ZM280.206 50.9128H268.206V58.5183H280.206H292.206V50.9128H280.206ZM280.206 58.5183V70.5183H293.999V58.5183V46.5183H280.206V58.5183ZM293.999 58.5183H281.999V73.6326H293.999H305.999V58.5183H293.999ZM293.999 73.6326V61.6326H260.42V73.6326V85.6326H293.999V73.6326ZM260.42 73.6326H272.42V12.8894H260.42H248.42V73.6326H260.42ZM260.42 12.8894V24.8894H293.903V12.8894V0.889404H260.42V12.8894ZM293.903 12.8894H281.903V28.0994H293.903H305.903V12.8894H293.903ZM382.398 12.8894V24.8894C382.832 24.8894 383.154 24.9108 383.378 24.9358C383.602 24.9608 383.7 24.9864 383.696 24.9852C383.694 24.9847 383.159 24.846 382.447 24.293C381.674 23.6932 381.036 22.8686 380.648 21.9696C380.471 21.5588 380.381 21.2116 380.336 20.968C380.292 20.7286 380.292 20.5932 380.292 20.5896H392.292H404.292C404.292 15.2217 402.394 9.39555 397.166 5.33612C392.506 1.71855 386.919 0.889404 382.398 0.889404V12.8894ZM392.292 20.5896H380.292V38.5554H392.292H404.292V20.5896H392.292ZM392.292 38.5554V26.5554H372.506V38.5554V50.5554H392.292V38.5554ZM372.506 38.5554H384.506V28.2888H372.506H360.506V38.5554H372.506ZM372.506 28.2888L384.506 28.2657C384.498 24.3082 382.632 21.3632 380.906 19.6478C379.179 17.9314 376.241 16.0994 372.315 16.0994V28.0994V40.0994C368.485 40.0994 365.641 38.3146 363.986 36.6691C362.332 35.0247 360.513 32.1744 360.506 28.3119L372.506 28.2888ZM372.315 28.0994V16.0994H367.844V28.0994V40.0994H372.315V28.0994ZM367.844 28.0994L367.836 16.0994C363.915 16.1022 360.98 17.9323 359.255 19.6468C357.531 21.3602 355.662 24.3053 355.654 28.2658L367.654 28.2888L379.654 28.3119C379.647 32.1774 377.825 35.0278 376.173 36.6702C374.519 38.3138 371.679 40.0966 367.853 40.0994L367.844 28.0994ZM367.654 28.2888H355.654V58.3279H367.654H379.654V28.2888H367.654ZM367.654 58.3279H355.654C355.654 62.2875 357.517 65.2324 359.228 66.9441C360.941 68.6563 363.882 70.5155 367.836 70.5183L367.844 58.5183L367.853 46.5183C371.711 46.5211 374.558 48.3326 376.199 49.9733C377.839 51.6136 379.654 54.4632 379.654 58.3279H367.654ZM367.844 58.5183V70.5183H372.315V58.5183V46.5183H367.844V58.5183ZM372.315 58.5183V70.5183C376.273 70.5183 379.219 68.6572 380.932 66.9431C382.646 65.2294 384.506 62.2846 384.506 58.3279H372.506H360.506C360.506 54.4662 362.318 51.6166 363.96 49.9744C365.602 48.3318 368.452 46.5183 372.315 46.5183V58.5183ZM372.506 58.3279H384.506V44.1638H372.506H360.506V58.3279H372.506ZM372.506 44.1638V56.1638H392.292V44.1638V32.1638H372.506V44.1638ZM392.292 44.1638H380.292V66.1228H392.292H404.292V44.1638H392.292ZM392.292 66.1228L380.292 66.1228C380.292 66.0745 380.3 65.4623 380.69 64.5784C381.111 63.6237 381.79 62.7829 382.577 62.1892C383.296 61.646 383.821 61.5214 383.788 61.5296C383.742 61.5413 383.325 61.6326 382.398 61.6326V73.6326V85.6326C386.841 85.6326 392.383 84.8569 397.036 81.3448C402.327 77.3506 404.292 71.5332 404.292 66.1228L392.292 66.1228ZM382.398 73.6326V61.6326H357.761V73.6326V85.6326H382.398V73.6326ZM357.761 73.6326V61.6326C356.834 61.6326 356.418 61.5413 356.372 61.5296C356.339 61.5215 356.864 61.6463 357.584 62.1897C358.371 62.7836 359.05 63.6246 359.471 64.5793C359.861 65.463 359.869 66.075 359.869 66.1228L347.869 66.1228L335.869 66.1228C335.869 71.532 337.832 77.3496 343.124 81.3443C347.777 84.8569 353.319 85.6326 357.761 85.6326V73.6326ZM347.869 66.1228H359.869V20.5896H347.869H335.869V66.1228H347.869ZM347.869 20.5896H359.869C359.869 20.593 359.869 20.7282 359.825 20.9675C359.78 21.2109 359.689 21.558 359.512 21.9687C359.125 22.8676 358.487 23.6924 357.714 24.2924C357.001 24.8457 356.466 24.9846 356.464 24.9852C356.46 24.9864 356.558 24.9608 356.782 24.9358C357.006 24.9108 357.328 24.8894 357.761 24.8894V12.8894V0.889404C353.24 0.889407 347.653 1.71853 342.994 5.33665C337.766 9.39657 335.869 15.2228 335.869 20.5896H347.869ZM357.761 12.8894V24.8894H382.398V12.8894V0.889404H357.761V12.8894ZM430.551 28.0994V16.0994H416.852V28.0994V40.0994H430.551V28.0994ZM416.852 28.0994H404.852V35.7039H416.852H428.852V28.0994H416.852ZM416.852 35.7039V47.7039H430.36V35.7039V23.7039H416.852V35.7039ZM430.36 35.7039H418.36V50.9128H430.36H442.36V35.7039H430.36ZM430.36 50.9128V38.9128H416.852V50.9128V62.9128H430.36V50.9128ZM416.852 50.9128H404.852V58.5183H416.852H428.852V50.9128H416.852ZM416.852 58.5183V70.5183H430.645V58.5183V46.5183H416.852V58.5183ZM430.645 58.5183H418.645V73.6326H430.645H442.645V58.5183H430.645ZM430.645 73.6326V61.6326H397.067V73.6326V85.6326H430.645V73.6326ZM397.067 73.6326H409.067V12.8894H397.067H385.067V73.6326H397.067ZM397.067 12.8894V24.8894H430.551V12.8894V0.889404H397.067V12.8894ZM430.551 12.8894H418.551V28.0994H430.551H442.551V12.8894H430.551ZM206.17 37.2244V49.2244H210.83V37.2244V25.2244H206.17V37.2244ZM210.83 37.2244V49.2244C214.757 49.2244 217.696 47.3905 219.421 45.6752C221.146 43.9608 223.011 41.0184 223.02 37.0642L211.02 37.0349L199.02 37.0056C199.03 33.1464 200.847 30.2987 202.5 28.6553C204.154 27.0109 206.997 25.2244 210.83 25.2244V37.2244ZM211.02 37.0349H223.02V28.2888H211.02H199.02V37.0349H211.02ZM211.02 28.2888L223.02 28.2657C223.013 24.3082 221.146 21.3632 219.42 19.6478C217.694 17.9314 214.755 16.0994 210.83 16.0994V28.0994V40.0994C207 40.0994 204.156 38.3146 202.501 36.6691C200.846 35.0247 199.028 32.1745 199.02 28.3119L211.02 28.2888ZM210.83 28.0994V16.0994H206.17V28.0994V40.0994H210.83V28.0994ZM206.17 28.0994H194.17V37.2244H206.17H218.17V28.0994H206.17ZM119.499 36.5593V48.5593H124.16V36.5593V24.5593H119.499V36.5593ZM124.16 36.5593V48.5593C128.118 48.5593 131.063 46.6981 132.777 44.9841C134.49 43.2704 136.35 40.3257 136.35 36.3689H124.35H112.35C112.35 32.5072 114.163 29.6576 115.805 28.0154C117.447 26.3728 120.297 24.5593 124.16 24.5593V36.5593ZM124.35 36.3689H136.35V28.2888H124.35H112.35V36.3689H124.35ZM124.35 28.2888L136.35 28.2658C136.343 24.3083 134.476 21.3632 132.751 19.6478C131.024 17.9314 128.085 16.0994 124.16 16.0994V28.0994V40.0994C120.33 40.0994 117.486 38.3146 115.831 36.6692C114.177 35.0247 112.358 32.1744 112.35 28.3118L124.35 28.2888ZM124.16 28.0994V16.0994H119.499V28.0994V40.0994H124.16V28.0994ZM119.499 28.0994H107.499V36.5593H119.499H131.499V28.0994H119.499Z" fill="#070708" mask="url(#path-1-outside-1_842_3073)"/>
</svg>
