<svg width="85" height="70" viewBox="0 0 85 70" fill="none" xmlns="http://www.w3.org/2000/svg">
<g filter="url(#filter0_d_106_556)">
<g filter="url(#filter1_d_106_556)">
<rect x="20" y="20" width="45" height="30" rx="15" fill="white"/>
</g>
<path d="M55.2821 37.8448H55.3134L57.1073 32.1388H58.6561L55.9813 39.5236C55.3707 41.2149 54.6711 41.7726 53.1854 41.7726C53.0716 41.7726 52.6943 41.7602 52.6063 41.7355V40.5773C52.7007 40.5897 52.934 40.6017 53.0536 40.6017C53.727 40.6017 54.1048 40.3233 54.3378 39.5988L54.4764 39.171L51.8954 32.1388H53.4882L55.2821 37.8448ZM32.8651 31.2843C33.2053 31.3091 34.1869 31.4079 34.8163 32.3243C34.7659 32.3615 33.6514 32.9937 33.6639 34.3195C33.6765 35.8989 35.0629 36.4279 35.0868 36.4445C35.0742 36.4816 34.8662 37.1939 34.3563 37.9249C33.9094 38.5692 33.4498 39.2016 32.7196 39.214C32.0149 39.2262 31.7815 38.799 30.9696 38.799C30.1641 38.7991 29.8995 39.2019 29.2323 39.2267C28.5274 39.2513 27.9927 38.5447 27.5458 37.9005C26.6331 36.5996 25.9339 34.2333 26.8778 32.6349C27.3373 31.8357 28.1749 31.3338 29.0751 31.3214C29.7675 31.309 30.4033 31.7735 30.8251 31.7736C31.2406 31.7736 31.9901 31.2347 32.8651 31.2843ZM48.4266 32.046C50.1702 32.0461 51.3034 32.9443 51.3036 34.338V39.1456H49.8934V37.9874H49.8622C49.4593 38.7433 48.571 39.2208 47.6141 39.2208C46.1979 39.2207 45.2099 38.3901 45.2098 37.1388C45.2098 35.8997 46.1665 35.1875 47.9354 35.0822L49.8368 34.9698V34.4376C49.8368 33.6509 49.3142 33.2228 48.3827 33.2228C47.6148 33.2228 47.0547 33.6135 46.9413 34.2081H45.5682C45.6124 32.9567 46.8088 32.046 48.4266 32.046ZM41.6024 29.4874C43.5035 29.4874 44.8318 30.776 44.8319 32.6593C44.8319 34.5426 43.4788 35.8438 41.5526 35.8439H39.4432V39.1456H37.9198V29.4874H41.6024ZM48.1434 36.0851C47.1929 36.1408 46.6952 36.4945 46.6952 37.1017C46.6954 37.69 47.2116 38.0742 48.0233 38.0743C49.0556 38.0743 49.8366 37.4299 49.8368 36.5255V35.9796L48.1434 36.0851ZM39.4432 34.5861H41.1932C42.5213 34.5861 43.277 33.8863 43.2772 32.6661C43.2772 31.4458 42.5218 30.7513 41.2001 30.7511H39.4432V34.5861ZM32.871 28.7501C32.9339 29.3696 32.6886 29.9766 32.3173 30.4288C31.9396 30.8686 31.3355 31.2155 30.7313 31.1661C30.6558 30.5714 30.9515 29.9392 31.2977 29.549C31.6754 29.097 32.3361 28.775 32.871 28.7501Z" fill="black"/>
</g>
<defs>
<filter id="filter0_d_106_556" x="0" y="0" width="85" height="70" filterUnits="userSpaceOnUse" color-interpolation-filters="sRGB">
<feFlood flood-opacity="0" result="BackgroundImageFix"/>
<feColorMatrix in="SourceAlpha" type="matrix" values="0 0 0 0 0 0 0 0 0 0 0 0 0 0 0 0 0 0 127 0" result="hardAlpha"/>
<feOffset/>
<feGaussianBlur stdDeviation="10"/>
<feComposite in2="hardAlpha" operator="out"/>
<feColorMatrix type="matrix" values="0 0 0 0 0 0 0 0 0 0 0 0 0 0 0 0 0 0 0.07 0"/>
<feBlend mode="normal" in2="BackgroundImageFix" result="effect1_dropShadow_106_556"/>
<feBlend mode="normal" in="SourceGraphic" in2="effect1_dropShadow_106_556" result="shape"/>
</filter>
<filter id="filter1_d_106_556" x="16" y="20" width="53" height="38" filterUnits="userSpaceOnUse" color-interpolation-filters="sRGB">
<feFlood flood-opacity="0" result="BackgroundImageFix"/>
<feColorMatrix in="SourceAlpha" type="matrix" values="0 0 0 0 0 0 0 0 0 0 0 0 0 0 0 0 0 0 127 0" result="hardAlpha"/>
<feOffset dy="4"/>
<feGaussianBlur stdDeviation="2"/>
<feComposite in2="hardAlpha" operator="out"/>
<feColorMatrix type="matrix" values="0 0 0 0 0 0 0 0 0 0 0 0 0 0 0 0 0 0 0.25 0"/>
<feBlend mode="normal" in2="BackgroundImageFix" result="effect1_dropShadow_106_556"/>
<feBlend mode="normal" in="SourceGraphic" in2="effect1_dropShadow_106_556" result="shape"/>
</filter>
</defs>
</svg>
