<svg width="45" height="32" viewBox="0 0 45 32" fill="none" xmlns="http://www.w3.org/2000/svg">
<rect width="45" height="31.9829" rx="15.875" fill="white"/>
<path fill-rule="evenodd" clip-rule="evenodd" d="M23.0001 26.6527C28.523 26.6527 33.0002 21.8795 33.0002 15.9916C33.0002 10.1036 28.523 5.33044 23.0001 5.33044C17.4772 5.33044 13 10.1036 13 15.9916C13 21.8795 17.4772 26.6527 23.0001 26.6527Z" fill="#F7931A"/>
<path d="M23.8723 9.58264L23.4299 11.4674C23.7261 11.5387 24.0235 11.6115 24.3127 11.6881L24.7522 9.81604L25.8538 10.108L25.4026 12.0309C26.7935 12.5401 27.811 13.3024 27.6116 14.7213C27.4666 15.7605 26.924 16.2631 26.2034 16.4391C27.192 16.9857 27.5292 18.0236 27.2161 19.278C26.6216 21.0828 25.2087 21.2343 23.3293 20.8571L22.8733 22.7975L21.7708 22.5055L22.2209 20.5914C21.9354 20.5161 21.6436 20.4352 21.343 20.3492L20.8909 22.2731L19.7903 21.9811L20.2463 20.0367L18.0276 19.442L18.5745 18.1022C18.5745 18.1022 19.3875 18.3308 19.3762 18.3141C19.688 18.3959 19.8265 18.18 19.8811 18.0367L21.1174 12.7711C21.1312 12.5226 21.0506 12.2092 20.6047 12.0905C20.619 12.0772 19.804 11.8785 19.804 11.8785L20.0969 10.6285L22.3196 11.2135L22.7708 9.29163L23.8723 9.58264ZM21.7024 18.941C22.4496 19.1384 24.7532 19.9243 25.094 18.4713C25.4492 16.9562 23.0553 16.5638 22.3079 16.3658L21.7024 18.941ZM22.5842 15.1871C23.2064 15.3512 25.1237 16.0221 25.4348 14.7018C25.7576 13.3239 23.7555 13.0155 23.1331 12.8502L22.5842 15.1871Z" fill="white"/>
</svg>
