<svg width="85" height="70" viewBox="0 0 85 70" fill="none" xmlns="http://www.w3.org/2000/svg">
<g filter="url(#filter0_d_106_555)">
<rect x="20" y="20" width="45" height="30" rx="15" fill="white"/>
<path d="M55.3533 37.8986H55.3767L57.2527 33.3204H58.572L54.5173 42.5001H53.2664L54.7732 39.2892L52.113 33.3204H53.4314L55.3533 37.8986ZM49.0076 33.1115C49.9043 33.1115 50.6136 33.3493 51.1335 33.8175C51.6534 34.2857 51.9098 34.94 51.9099 35.7648V39.6974H50.7488V38.8126H50.696C50.1911 39.5411 49.5277 39.9054 48.6912 39.9054C47.983 39.9053 47.3797 39.6976 46.905 39.2814C46.438 38.8948 46.1741 38.3218 46.1892 37.7198C46.1894 37.0585 46.4461 36.5385 46.9509 36.1447C47.4558 35.7507 48.1343 35.5568 48.9783 35.5568C49.7015 35.5568 50.2895 35.6909 50.7566 35.9435V35.6681C50.7564 35.2596 50.5757 34.873 50.2595 34.6056C49.9355 34.3232 49.5201 34.1671 49.0906 34.1671C48.4126 34.1672 47.8779 34.45 47.4861 35.0148L46.4158 34.3527C46.9884 33.5279 47.855 33.1116 49.0076 33.1115ZM43.2576 30.3761C44.0338 30.3612 44.7875 30.6514 45.3376 31.1866C46.4379 32.1976 46.5059 33.8996 45.4734 34.9923C45.4282 35.0369 45.3829 35.0815 45.3376 35.1261C44.7724 35.6538 44.079 35.922 43.2576 35.922H41.2527V39.6974H40.0398V30.3761H43.2576ZM49.1667 36.5236C48.6769 36.5236 48.262 36.6428 47.9304 36.8732C47.6066 37.1035 47.4413 37.3932 47.4412 37.7423C47.4412 38.0544 47.5919 38.3442 47.8406 38.5226C48.1118 38.7306 48.443 38.8424 48.782 38.8351C49.2945 38.8351 49.7845 38.6342 50.1462 38.2775C50.5457 37.9058 50.7497 37.4675 50.7498 36.962C50.3729 36.6648 49.845 36.5161 49.1667 36.5236ZM41.2537 34.7765H43.2888C43.7409 34.7912 44.1781 34.6135 44.4871 34.2941C45.1202 33.6474 45.1047 32.606 44.449 31.9816C44.1401 31.6845 43.7257 31.5207 43.2888 31.5206H41.2537V34.7765Z" fill="#3C4043"/>
<path d="M37.0641 35.1038C37.0641 34.7396 37.034 34.3754 36.9737 34.0186H31.8566V36.0776H34.7882C34.6676 36.7392 34.2757 37.3339 33.703 37.7055V39.0436H35.4514C36.4763 38.1144 37.0641 36.7392 37.0641 35.1038Z" fill="#4285F4"/>
<path d="M31.8567 40.3369C33.3187 40.3369 34.5547 39.8611 35.4515 39.0435L33.7031 37.7054C33.2132 38.0325 32.5877 38.2184 31.8567 38.2184C30.4399 38.2184 29.2416 37.2743 28.812 36.0106H27.0109V37.3932C27.9303 39.1996 29.8068 40.3369 31.8567 40.3369Z" fill="#34A853"/>
<path d="M28.8123 36.0107C28.5862 35.3491 28.5862 34.6281 28.8123 33.9591V32.5839H27.0109C26.2345 34.0929 26.2345 35.8769 27.0109 37.3859L28.8123 36.0107Z" fill="#FBBC04"/>
<path d="M31.8567 31.7513C32.6329 31.7364 33.379 32.0263 33.9367 32.5541L35.4892 31.0228C34.5019 30.1159 33.2057 29.6179 31.8567 29.6328C29.8068 29.6328 27.9303 30.7775 27.0109 32.5839L28.812 33.9665C29.2416 32.6954 30.4399 31.7513 31.8567 31.7513Z" fill="#EA4335"/>
</g>
<defs>
<filter id="filter0_d_106_555" x="0" y="0" width="85" height="70" filterUnits="userSpaceOnUse" color-interpolation-filters="sRGB">
<feFlood flood-opacity="0" result="BackgroundImageFix"/>
<feColorMatrix in="SourceAlpha" type="matrix" values="0 0 0 0 0 0 0 0 0 0 0 0 0 0 0 0 0 0 127 0" result="hardAlpha"/>
<feOffset/>
<feGaussianBlur stdDeviation="10"/>
<feComposite in2="hardAlpha" operator="out"/>
<feColorMatrix type="matrix" values="0 0 0 0 0 0 0 0 0 0 0 0 0 0 0 0 0 0 0.07 0"/>
<feBlend mode="normal" in2="BackgroundImageFix" result="effect1_dropShadow_106_555"/>
<feBlend mode="normal" in="SourceGraphic" in2="effect1_dropShadow_106_555" result="shape"/>
</filter>
</defs>
</svg>
