<svg width="45" height="30" viewBox="0 0 45 30" fill="none" xmlns="http://www.w3.org/2000/svg">
<rect width="45" height="30" rx="15" fill="white"/>
<path d="M28.5123 6.25C33.3577 6.25007 37.2858 10.1134 37.2858 14.8789C37.2856 19.6443 33.3576 23.5077 28.5123 23.5078C26.34 23.5078 24.3532 22.7295 22.8209 21.4434C21.2888 22.7293 19.3026 23.5078 17.1305 23.5078C12.2851 23.5078 8.35715 19.6443 8.35706 14.8789C8.35706 10.1134 12.2851 6.25 17.1305 6.25C19.3024 6.25 21.2888 7.02771 22.8209 8.31348C24.3531 7.02745 26.3401 6.25 28.5123 6.25Z" fill="#ED0006"/>
<path d="M28.5117 6.25C33.3571 6.25 37.2852 10.1134 37.2852 14.8789C37.285 19.6443 33.3571 23.5078 28.5117 23.5078C26.3395 23.5077 24.3534 22.7286 22.8213 21.4424C24.7066 19.8598 25.9042 17.5077 25.9043 14.8789C25.9043 12.2499 24.7068 9.89711 22.8213 8.31445C24.3534 7.02839 26.3396 6.25011 28.5117 6.25Z" fill="#F9A000"/>
<path d="M22.8208 8.31311C24.7068 9.89575 25.9038 12.2491 25.9038 14.8785C25.9038 17.5077 24.7065 19.8603 22.8208 21.443C20.9355 19.8603 19.7388 17.5075 19.7388 14.8785C19.7388 12.2494 20.9351 9.89574 22.8208 8.31311Z" fill="#FF5E00"/>
</svg>
