<svg width="85" height="70" viewBox="0 0 85 70" fill="none" xmlns="http://www.w3.org/2000/svg">
<g filter="url(#filter0_d_106_554)">
<rect x="20" y="20" width="45" height="30" rx="15" fill="white"/>
<path d="M48.9325 31.1755C50.5261 31.1757 52.0288 32.5713 52.038 35.1326C52.038 37.9325 50.5529 39.2048 48.9227 39.2048C48.1217 39.2047 47.6392 38.8778 47.3114 38.6482L47.3016 41.1472L45.0253 41.616V31.3171H47.0292L47.1473 31.865C47.4661 31.5823 48.04 31.1755 48.9325 31.1755ZM29.5067 31.1755C30.2626 31.1755 31.0096 31.2903 31.7655 31.5818V33.658C31.0734 33.2958 30.1989 33.0925 29.5067 33.0925C29.0242 33.0925 28.7324 33.2248 28.7323 33.5691C28.7323 34.5583 32.2026 34.0904 32.2118 36.7224C32.2118 38.3034 30.9088 39.2136 29.0145 39.2136C28.2315 39.2136 27.3759 39.0628 26.5292 38.7097V36.6082C27.2939 37.0142 28.2589 37.3141 29.0145 37.3142C29.5245 37.3142 29.8895 37.1814 29.8895 36.7751C29.8887 35.7246 26.4288 36.1128 26.4286 33.6755C26.4286 32.1122 27.658 31.1756 29.5067 31.1755ZM34.8798 31.3259H36.6102V33.2068H34.8798V36.3425C34.8798 37.6496 36.3186 37.2435 36.6102 37.1287V38.9216C36.3097 39.0806 35.7632 39.2126 35.0165 39.2126C33.6687 39.2126 32.6581 38.2503 32.6581 36.9431L32.6669 29.8679L34.8895 29.4089L34.8798 31.3259ZM55.9266 31.1755C58.085 31.1756 59.2147 32.9603 59.2147 35.2214C59.2147 35.4333 59.1962 35.8911 59.1962 36.0066H54.743C54.8432 37.0488 55.6262 37.3494 56.5096 37.3494C57.4111 37.3493 58.1219 37.1643 58.7411 36.864V38.6306C58.1218 38.9663 57.3014 39.2048 56.2177 39.2048C53.9957 39.2047 52.4471 37.8613 52.4471 35.2029C52.4473 32.9596 53.7593 31.1755 55.9266 31.1755ZM39.4423 31.9792C39.9796 31.0253 41.0454 31.2199 41.3368 31.3259V33.3572C41.0544 33.26 40.1436 33.1363 39.6063 33.8162V39.0544H37.33V31.3259H39.2968L39.4423 31.9792ZM44.1786 39.0544H41.8925V31.3259H44.1786V39.0544ZM48.3856 33.1365C47.8666 33.1365 47.5384 33.313 47.3016 33.5691L47.3114 36.8464C47.53 37.0759 47.8486 37.2615 48.3856 37.2615C49.2235 37.2615 49.788 36.3777 49.788 35.1941C49.7878 34.0372 49.2143 33.1365 48.3856 33.1365ZM55.9178 32.9685C55.3442 32.9685 54.7159 33.3839 54.7157 34.3816H57.0653C57.0651 33.3841 56.4732 32.9687 55.9178 32.9685ZM44.1786 30.1775L41.8925 30.6541V28.8523L44.1786 28.3845V30.1775Z" fill="#6461FC"/>
</g>
<defs>
<filter id="filter0_d_106_554" x="0" y="0" width="85" height="70" filterUnits="userSpaceOnUse" color-interpolation-filters="sRGB">
<feFlood flood-opacity="0" result="BackgroundImageFix"/>
<feColorMatrix in="SourceAlpha" type="matrix" values="0 0 0 0 0 0 0 0 0 0 0 0 0 0 0 0 0 0 127 0" result="hardAlpha"/>
<feOffset/>
<feGaussianBlur stdDeviation="10"/>
<feComposite in2="hardAlpha" operator="out"/>
<feColorMatrix type="matrix" values="0 0 0 0 0 0 0 0 0 0 0 0 0 0 0 0 0 0 0.07 0"/>
<feBlend mode="normal" in2="BackgroundImageFix" result="effect1_dropShadow_106_554"/>
<feBlend mode="normal" in="SourceGraphic" in2="effect1_dropShadow_106_554" result="shape"/>
</filter>
</defs>
</svg>
