<svg width="45" height="32" viewBox="0 0 45 32" fill="none" xmlns="http://www.w3.org/2000/svg">
<rect width="45" height="31.9829" rx="15.875" fill="white"/>
<path d="M23 26.6524C28.5228 26.6524 33 21.8793 33 15.9914C33 10.1035 28.5228 5.33044 23 5.33044C17.4772 5.33044 13 10.1035 13 15.9914C13 21.8793 17.4772 26.6524 23 26.6524Z" fill="#26A17B"/>
<path fill-rule="evenodd" clip-rule="evenodd" d="M24.2013 16.9131V16.9118C24.1325 16.9171 23.7781 16.9398 22.9875 16.9398C22.3562 16.9398 21.9119 16.9198 21.7556 16.9118V16.9138C19.3256 16.7999 17.5119 16.3488 17.5119 15.8091C17.5119 15.27 19.3256 14.8189 21.7556 14.703V16.4647C21.9144 16.4767 22.3694 16.5053 22.9981 16.5053C23.7525 16.5053 24.1306 16.472 24.2013 16.4654V14.7043C26.6263 14.8196 28.4356 15.2707 28.4356 15.8091C28.4356 16.3488 26.6263 16.7985 24.2013 16.9131ZM24.2013 14.5211V12.9446H27.585V10.5405H18.3719V12.9446H21.7556V14.5204C19.0056 14.655 16.9375 15.236 16.9375 15.9317C16.9375 16.6273 19.0056 17.2076 21.7556 17.3429V22.3949H24.2013V17.3416C26.9469 17.207 29.01 16.6266 29.01 15.9317C29.01 15.2367 26.9469 14.6563 24.2013 14.5211Z" fill="white"/>
</svg>
