<svg width="45" height="32" viewBox="0 0 45 32" fill="none" xmlns="http://www.w3.org/2000/svg">
<rect width="45" height="31.9829" rx="15.875" fill="white"/>
<path d="M23 26.6524C28.5228 26.6524 33 21.8793 33 15.9914C33 10.1035 28.5228 5.33044 23 5.33044C17.4772 5.33044 13 10.1035 13 15.9914C13 21.8793 17.4772 26.6524 23 26.6524Z" fill="#23292F"/>
<path d="M27.4187 10.661H29.225L25.4656 14.6302C24.8084 15.3206 23.9227 15.7076 23 15.7076C22.0773 15.7076 21.1916 15.3206 20.5344 14.6302L16.7719 10.661H18.5813L21.4375 13.6747C21.8534 14.1124 22.4143 14.3578 22.9988 14.3578C23.5832 14.3578 24.1441 14.1124 24.56 13.6747L27.4187 10.661ZM18.5594 21.6971H16.75L20.5344 17.7039C21.1916 17.0135 22.0773 16.6265 23 16.6265C23.9227 16.6265 24.8084 17.0135 25.4656 17.7039L29.25 21.6965H27.4406L24.5625 18.6567C24.1466 18.2191 23.5857 17.9737 23.0013 17.9737C22.4168 17.9737 21.8559 18.2191 21.44 18.6567L18.5588 21.6971H18.5594Z" fill="white"/>
</svg>
