<svg width="104" height="104" viewBox="0 0 104 104" fill="none" xmlns="http://www.w3.org/2000/svg">
<path d="M20.4761 2H83.5239C93.7266 2 102 10.2562 102 20.4698V83.5303C102 93.7438 93.7266 102 83.5239 102H20.4761C10.2734 102 2 93.7438 2 83.5303V20.5053C2 10.2918 10.2734 2 20.4761 2Z" fill="#FFA500" stroke="black" stroke-width="3"/>
<path d="M87.5124 77.5519H57.7044C54.3444 77.5519 52.6644 76.304 52.6644 73.7599V45.1039C52.6644 45.0559 52.6164 45.0079 52.5684 45.0079H50.3124C50.2644 45.0079 50.2164 45.0559 50.2164 45.1039V67.9999H40.2324V37.3279H50.2164V39.2959C51.8964 37.9999 54.3924 37.3279 57.6564 37.3279C60.9684 37.3279 62.6484 38.6239 62.6484 41.2159V69.8239C62.6484 69.8719 62.6964 69.9199 62.7444 69.9199H87.5124V77.5519ZM82.5204 67.9999H65.0964V29.6479H75.0804V37.3279H82.5204C85.8324 37.3279 87.5124 38.6239 87.5124 41.2159V64.2079C87.5124 66.7519 85.8324 67.9999 82.5204 67.9999ZM77.5284 60.2719V45.1039C77.5284 45.0559 77.4804 45.0079 77.4324 45.0079H75.0804V60.3679H77.4324C77.4804 60.3679 77.5284 60.3199 77.5284 60.2719Z" fill="black"/>
<path d="M27.8652 60.2719V45.1039C27.8652 45.0559 27.8172 45.0079 27.7692 45.0079H25.5132C25.4652 45.0079 25.4172 45.0559 25.4172 45.1039V60.2719C25.4172 60.3199 25.4652 60.3679 25.5132 60.3679H27.7692C27.8172 60.3679 27.8652 60.3199 27.8652 60.2719ZM32.8572 67.9999H20.4252C17.1132 67.9999 15.4332 66.7519 15.4332 64.2079V41.2159C15.4332 38.6239 17.1132 37.3279 20.4252 37.3279H32.8572C36.1692 37.3279 37.8492 38.6239 37.8492 41.2159V64.2079C37.8492 66.7519 36.1692 67.9999 32.8572 67.9999Z" fill="black"/>
<path d="M87.7695 72.4844L87.9023 73.3291H96.8496L89.2705 78.6797L88.7695 79.0342L88.8574 79.6406L90.1357 88.4336L83.3174 83.1572L82.7783 82.7402L82.1934 83.0889L73.1553 88.4824L77.332 79.4541L77.6162 78.8408L77.1523 78.3486L72.3213 73.2197L80.3799 73.2432L80.9541 73.2441L81.2451 72.749L86.4248 63.9199L87.7695 72.4844Z" fill="white" stroke="black" stroke-width="2"/>
</svg>
