<svg width="261" height="84" viewBox="0 0 261 84" fill="none" xmlns="http://www.w3.org/2000/svg">
<path d="M51.709 31.877L51.8408 32.7227H80.9512L55.1631 50.9756L54.6631 51.3291L54.751 51.9355L58.96 80.9619L36.4092 63.4639L35.8691 63.0449L35.2822 63.3965L5.05859 81.4795L19.1621 50.916L19.4453 50.3037L18.9834 49.8125L2.62891 32.4043L29.3057 32.4795L29.8809 32.4814L30.1709 31.9844L47.1758 2.92676L51.709 31.877Z" fill="#FF96E1" stroke="black" stroke-width="2"/>
<path d="M256.472 70.56H247.544L245.533 64.9958L243.442 70.56H236.364L241.592 56.7706L236.806 44.7955H245.131L247.101 50.3597L249.072 44.7955H255.708L251.163 56.569L256.472 70.56Z" fill="white"/>
<path d="M226.766 64.0685V51.3274C226.766 51.287 226.726 51.2467 226.686 51.2467H224.796C224.756 51.2467 224.715 51.287 224.715 51.3274V64.0685C224.715 64.1088 224.756 64.1491 224.796 64.1491H226.686C226.726 64.1491 226.766 64.1088 226.766 64.0685ZM230.949 70.56H220.533C217.758 70.56 216.35 69.5117 216.35 67.3747V48.0614C216.35 45.8842 217.758 44.7955 220.533 44.7955H230.949C233.724 44.7955 235.131 45.8842 235.131 48.0614V67.3747C235.131 69.5117 233.724 70.56 230.949 70.56Z" fill="white"/>
<path d="M210.214 70.56H195.616V38.3443H203.981V44.7955H210.214C212.989 44.7955 214.397 45.8842 214.397 48.0614V67.3747C214.397 69.5117 212.989 70.56 210.214 70.56ZM206.032 64.0685V51.3274C206.032 51.287 205.992 51.2467 205.952 51.2467H203.981V64.1491H205.952C205.992 64.1491 206.032 64.1088 206.032 64.0685Z" fill="white"/>
<path d="M193.55 78.5837H167.329C164.514 78.5837 163.106 77.5354 163.106 75.3984V51.3274C163.106 51.287 163.066 51.2467 163.026 51.2467H161.055V70.56H152.691V38.3443H161.055V44.7955H167.289C170.064 44.7955 171.471 45.8842 171.471 48.0614V72.0922C171.471 72.1325 171.512 72.1728 171.552 72.1728H193.55V78.5837ZM189.367 70.56H178.951C176.177 70.56 174.769 69.5117 174.769 67.3747V52.8192H172.718V46.4486H174.769V44.7955H183.134V46.4486H193.55V52.8192H183.134V64.0685C183.134 64.1088 183.174 64.1491 183.214 64.1491H185.145C185.185 64.1491 185.225 64.1088 185.225 64.0685V54.4723H193.55V67.3747C193.55 69.5117 192.142 70.56 189.367 70.56Z" fill="white"/>
<path d="M146.433 78.5837H131.835V72.1728H142.17C142.21 72.1728 142.251 72.1325 142.251 72.0922V70.56H136.017C133.242 70.56 131.835 69.5117 131.835 67.3747V48.0614C131.835 45.8842 133.242 44.7955 136.017 44.7955H150.615V75.3984C150.615 77.5354 149.208 78.5837 146.433 78.5837ZM142.251 64.1491V51.2467H140.28C140.24 51.2467 140.2 51.287 140.2 51.3274V64.0685C140.2 64.1088 140.24 64.1491 140.28 64.1491H142.251Z" fill="white"/>
<path d="M129.811 78.5837H115.253C112.438 78.5837 111.03 77.5354 111.03 75.3984V51.3274C111.03 51.287 110.99 51.2467 110.95 51.2467H109.06C109.02 51.2467 108.979 51.287 108.979 51.3274V70.56H100.614V44.7955H108.979V46.4486C110.387 45.36 112.478 44.7955 115.213 44.7955C117.988 44.7955 119.395 45.8842 119.395 48.0614V72.0922C119.395 72.1325 119.435 72.1728 119.476 72.1728H129.811V78.5837ZM129.811 70.56H121.446V44.7955H129.811V70.56Z" fill="white"/>
<path d="M98.5955 78.5837H73.702C70.8869 78.5837 69.4793 77.5354 69.4793 75.3984V51.3274C69.4793 51.287 69.4391 51.2467 69.3989 51.2467H67.5088C67.4686 51.2467 67.4283 51.287 67.4283 51.3274V70.56H59.0635V44.7955H67.4283V46.4486C68.8359 45.36 70.9271 44.7955 73.6618 44.7955C76.4367 44.7955 77.8442 45.8842 77.8442 48.0614V72.0922C77.8442 72.1325 77.8844 72.1728 77.9246 72.1728H98.5955V78.5837ZM90.2306 54.9158V51.3274C90.2306 51.287 90.1904 51.2467 90.1502 51.2467H88.2601C88.2198 51.2467 88.1796 51.287 88.1796 51.3274V54.9158H90.2306ZM94.4131 70.56H83.9972C81.2223 70.56 79.8148 69.5117 79.8148 67.3747V48.0614C79.8148 45.8842 81.2223 44.7955 83.9972 44.7955H94.4131C97.1879 44.7955 98.5955 45.8842 98.5955 48.0614V60.9235H88.1796V64.0685C88.1796 64.1088 88.2198 64.1491 88.2601 64.1491H90.1502C90.1904 64.1491 90.2306 64.1088 90.2306 64.0685V62.5363H98.5955V67.3747C98.5955 69.5117 97.1879 70.56 94.4131 70.56Z" fill="white"/>
<path d="M48.7019 64.0685V51.3274C48.7019 51.287 48.6617 51.2467 48.6215 51.2467H46.7314C46.6912 51.2467 46.6509 51.287 46.6509 51.3274V64.0685C46.6509 64.1088 46.6912 64.1491 46.7314 64.1491H48.6215C48.6617 64.1491 48.7019 64.1088 48.7019 64.0685ZM52.8844 70.56H42.4685C39.6936 70.56 38.2861 69.5117 38.2861 67.3747V48.0614C38.2861 45.8842 39.6936 44.7955 42.4685 44.7955H52.8844C55.6593 44.7955 57.0668 45.8842 57.0668 48.0614V67.3747C57.0668 69.5117 55.6593 70.56 52.8844 70.56Z" fill="white"/>
<path fill-rule="evenodd" clip-rule="evenodd" d="M233.936 69.8712L232.719 73.08H245.181L245.487 72.2656L245.781 73.08H260.117L253.855 56.5767L259.375 42.2755H247.297L247.101 42.8284L246.905 42.2755H233.091L234.705 46.3145C234.85 46.5558 234.958 46.826 235.029 47.1249L238.894 56.7947L235.131 66.7186V67.3747C235.131 68.4081 234.802 69.1869 234.148 69.7157C234.081 69.7702 234.01 69.822 233.936 69.8712ZM241.592 56.7706L236.364 70.56H243.442L245.533 64.9958L247.544 70.56H256.471L251.163 56.569L255.707 44.7955H249.072L247.101 50.3597L245.131 44.7955H236.806L241.592 56.7706Z" fill="black"/>
<path fill-rule="evenodd" clip-rule="evenodd" d="M214.034 68.977C214.312 70.0512 214.901 71.0331 215.886 71.7795C217.213 72.7847 218.902 73.08 220.533 73.08H230.949C232.579 73.08 234.268 72.7847 235.595 71.7795C236.068 71.4218 236.449 71.0101 236.748 70.56H236.364L237.645 67.1814V48.0614C237.645 47.4715 237.573 46.8866 237.418 46.327L236.974 45.2147C236.654 44.621 236.21 44.0797 235.623 43.6221C234.294 42.5871 232.596 42.2755 230.949 42.2755H220.533C218.886 42.2755 217.187 42.5871 215.859 43.6221C214.89 44.3769 214.312 45.3594 214.036 46.4294C214.276 46.8801 214.397 47.4241 214.397 48.0614V67.3747C214.397 68.0024 214.275 68.5362 214.034 68.977ZM226.766 64.0685C226.766 64.1088 226.726 64.1491 226.686 64.1491H224.796C224.755 64.1491 224.715 64.1088 224.715 64.0685V51.3274C224.715 51.287 224.755 51.2467 224.796 51.2467H226.686C226.726 51.2467 226.766 51.287 226.766 51.3274V64.0685ZM220.533 70.56H230.949C233.724 70.56 235.131 69.5117 235.131 67.3747V48.0614C235.131 45.8842 233.724 44.7955 230.949 44.7955H220.533C217.758 44.7955 216.35 45.8842 216.35 48.0614V67.3747C216.35 69.5117 217.758 70.56 220.533 70.56Z" fill="black"/>
<path fill-rule="evenodd" clip-rule="evenodd" d="M193.103 72.1728V69.1185C193.4 68.652 193.55 68.0711 193.55 67.3747V54.4723H193.103V52.8192H193.55V46.4486H193.103V35.8243H206.494V42.2755H210.214C211.862 42.2755 213.56 42.5871 214.888 43.6221C215.857 44.3769 216.435 45.3594 216.711 46.4294C216.471 46.8801 216.35 47.4241 216.35 48.0614V67.3747C216.35 68.0024 216.472 68.5362 216.714 68.977C216.435 70.0512 215.847 71.0331 214.861 71.7795C213.534 72.7847 211.845 73.08 210.214 73.08H193.55V72.1728H193.103ZM203.981 44.7955V38.3443H195.616V70.56H210.214C212.989 70.56 214.397 69.5117 214.397 67.3747V48.0614C214.397 45.8842 212.989 44.7955 210.214 44.7955H203.981ZM203.981 64.1491H205.952C205.992 64.1491 206.032 64.1088 206.032 64.0685V51.3274C206.032 51.287 205.992 51.2467 205.952 51.2467H203.981V64.1491Z" fill="black"/>
<path fill-rule="evenodd" clip-rule="evenodd" d="M196.063 81.1037H167.329C165.685 81.1037 163.987 80.8108 162.654 79.8084C161.183 78.702 160.593 77.0745 160.593 75.3984V73.08H150.615V44.7955H150.177V35.8243H163.569V42.2755H167.289C168.936 42.2755 170.634 42.5871 171.963 43.6221C172.065 43.7014 172.162 43.7833 172.255 43.8675V42.2755H185.647V43.9286H195.616V70.56H196.063V81.1037ZM183.134 46.4486V44.7955H174.769V46.4486H172.718V52.8192H174.769V67.3747C174.769 68.3679 175.073 69.1259 175.677 69.6528C176.373 70.2597 177.466 70.56 178.951 70.56H189.367C190.853 70.56 191.946 70.2597 192.642 69.6528C193.246 69.1259 193.55 68.3679 193.55 67.3747V54.4723H185.225V64.0685C185.225 64.1088 185.185 64.1491 185.145 64.1491H183.214C183.174 64.1491 183.134 64.1088 183.134 64.0685V52.8192H193.55V46.4486H183.134ZM171.552 72.1728C171.511 72.1728 171.471 72.1325 171.471 72.0922V48.0614C171.471 47.4332 171.354 46.8956 171.121 46.4486C170.91 46.0449 170.604 45.7152 170.204 45.4593C169.513 45.0168 168.54 44.7955 167.289 44.7955H161.055V38.3443H152.691V70.56H161.055V51.2467H163.026C163.066 51.2467 163.106 51.287 163.106 51.3274V75.3984C163.106 77.5354 164.514 78.5837 167.329 78.5837H193.55V72.1728H171.552Z" fill="black"/>
<path fill-rule="evenodd" clip-rule="evenodd" d="M129.321 78.5837H129.811V72.1728H129.321V70.56H129.811V45.5861C130.136 44.8464 130.635 44.1735 131.343 43.6221C132.672 42.5871 134.37 42.2755 136.017 42.2755H152.691V70.56H153.129V75.3984C153.129 77.0732 152.54 78.6969 151.08 79.8032C149.752 80.8084 148.064 81.1037 146.433 81.1037H129.321V78.5837ZM132.743 69.6528C133.438 70.2597 134.532 70.56 136.017 70.56H142.251V72.0922C142.251 72.1325 142.21 72.1728 142.17 72.1728H131.835V78.5837H146.433C149.208 78.5837 150.615 77.5354 150.615 75.3984V44.7955H136.017C133.242 44.7955 131.835 45.8842 131.835 48.0614V67.3747C131.835 68.3679 132.139 69.1259 132.743 69.6528ZM142.251 64.1491H140.28C140.24 64.1491 140.2 64.1088 140.2 64.0685V51.3274C140.2 51.287 140.24 51.2467 140.28 51.2467H142.251V64.1491Z" fill="black"/>
<path fill-rule="evenodd" clip-rule="evenodd" d="M98.5954 73.08H108.517V75.3984C108.517 77.0745 109.106 78.702 110.578 79.8084C111.911 80.8108 113.609 81.1037 115.253 81.1037H132.324V78.5837H131.835V72.1728H132.324V69.1832C131.998 68.706 131.835 68.1037 131.835 67.3747V48.0614C131.835 47.3187 131.998 46.7026 132.324 46.2133V42.2755H118.933V43.0257C117.792 42.462 116.487 42.2755 115.213 42.2755C113.906 42.2755 112.655 42.3904 111.493 42.6471V42.2755H98.1009V46.2062C98.43 46.6967 98.5954 47.3151 98.5954 48.0614V60.9235H98.1009V62.5363H98.5954V67.3747C98.5954 68.1072 98.43 68.7118 98.1009 69.1901V72.1728H98.5954V73.08ZM111.493 45.2426C110.498 45.5193 109.659 45.9228 108.979 46.4486V44.7955H100.614V70.56H108.979V51.3274C108.979 51.287 109.019 51.2467 109.06 51.2467H110.95C110.99 51.2467 111.03 51.287 111.03 51.3274V75.3984C111.03 77.5354 112.438 78.5837 115.253 78.5837H129.811V72.1728H119.476C119.435 72.1728 119.395 72.1325 119.395 72.0922V48.0614C119.395 47.3397 119.24 46.7377 118.933 46.2552C118.312 45.2821 117.068 44.7955 115.213 44.7955C113.799 44.7955 112.557 44.9464 111.493 45.2426ZM121.446 70.56H129.811V44.7955H121.446V70.56Z" fill="black"/>
<path fill-rule="evenodd" clip-rule="evenodd" d="M56.5499 69.222V73.08H66.9658V75.3984C66.9658 77.0745 67.5555 78.702 69.0268 79.8084C70.3599 80.8108 72.0575 81.1037 73.7019 81.1037H101.109V70.56H100.614V45.5754C100.289 44.8399 99.7914 44.1708 99.0869 43.6221C97.7584 42.5871 96.0602 42.2755 94.413 42.2755H83.9971C82.3499 42.2755 80.6518 42.5871 79.3232 43.6221C79.1457 43.7604 78.9812 43.9063 78.8294 44.059C78.6776 43.9063 78.5132 43.7604 78.3356 43.6221C77.0071 42.5871 75.3089 42.2755 73.6617 42.2755C72.3554 42.2755 71.1044 42.3904 69.9418 42.6471V42.2755H56.5499V46.1735C56.8939 46.6691 57.0668 47.2984 57.0668 48.0614V67.3747C57.0668 68.1236 56.8939 68.7388 56.5499 69.222ZM69.9418 45.2426C68.9475 45.5193 68.1081 45.9228 67.4283 46.4486V44.7955H59.0634V70.56H67.4283V51.3274C67.4283 51.287 67.4685 51.2467 67.5087 51.2467H69.3988C69.4391 51.2467 69.4793 51.287 69.4793 51.3274V75.3984C69.4793 77.5354 70.8868 78.5837 73.7019 78.5837H98.5954V72.1728H77.9246C77.8843 72.1728 77.8441 72.1325 77.8441 72.0922V48.0614C77.8441 47.4343 77.7274 46.8975 77.4948 46.451C76.9199 45.3474 75.6373 44.7955 73.6617 44.7955C72.2479 44.7955 71.006 44.9464 69.9418 45.2426ZM80.164 46.451C79.9315 46.8975 79.8147 47.4343 79.8147 48.0614V67.3747C79.8147 68.1423 79.9963 68.7694 80.3576 69.2579C80.4638 69.4015 80.5855 69.5331 80.7227 69.6528C81.4183 70.2597 82.5119 70.56 83.9971 70.56H94.413C95.8983 70.56 96.9918 70.2597 97.6874 69.6528C98.2914 69.1259 98.5954 68.3679 98.5954 67.3747V62.5363H90.2306V64.0685C90.2306 64.1088 90.1903 64.1491 90.1501 64.1491H88.26C88.2198 64.1491 88.1796 64.1088 88.1796 64.0685V60.9235H98.5954V48.0614C98.5954 45.8842 97.1879 44.7955 94.413 44.7955H83.9971C82.0215 44.7955 80.739 45.3474 80.164 46.451ZM90.2306 51.3274V54.9158H88.1796V51.3274C88.1796 51.287 88.2198 51.2467 88.26 51.2467H90.1501C90.1903 51.2467 90.2306 51.287 90.2306 51.3274Z" fill="black"/>
<path fill-rule="evenodd" clip-rule="evenodd" d="M48.7019 64.0685C48.7019 64.1088 48.6617 64.1491 48.6215 64.1491H46.7314C46.6911 64.1491 46.6509 64.1088 46.6509 64.0685V51.3274C46.6509 51.287 46.6911 51.2467 46.7314 51.2467H48.6215C48.6617 51.2467 48.7019 51.287 48.7019 51.3274V64.0685ZM42.4685 70.56H52.8844C55.6592 70.56 57.0668 69.5117 57.0668 67.3747V48.0614C57.0668 45.8842 55.6592 44.7955 52.8844 44.7955H42.4685C39.6936 44.7955 38.2861 45.8842 38.2861 48.0614V67.3747C38.2861 69.5117 39.6936 70.56 42.4685 70.56ZM59.0634 45.5257C58.7378 44.8098 58.2468 44.1584 57.5583 43.6221C56.2297 42.5871 54.5316 42.2755 52.8844 42.2755H42.4685C40.8212 42.2755 39.1231 42.5871 37.7946 43.6221C36.3471 44.7497 35.7726 46.3853 35.7726 48.0614V67.3747C35.7726 69.0496 36.361 70.6732 37.8217 71.7795C39.149 72.7847 40.8377 73.08 42.4685 73.08H52.8844C54.5151 73.08 56.2039 72.7847 57.5312 71.7795C58.2326 71.2483 58.7329 70.5978 59.0634 69.8796V45.5257Z" fill="black"/>
</svg>
